<svg xmlns="http://www.w3.org/2000/svg" width="34" height="32" viewBox="0 0 34 32">
  <defs>
    <style>
      .cls-1 {
        fill: #fff;
        fill-rule: evenodd;
      }
    </style>
  </defs>
  <path class="cls-1" d="M913.489,1609.67V1584H897.622v16a0.377,0.377,0,0,1-.378.37H891.2a8.635,8.635,0,0,0-8.689,8.56v0.74H881v5.59h1.133a0.957,0.957,0,0,1,.624.2,3.327,3.327,0,0,0,3.634,0,1.073,1.073,0,0,1,1.248,0,3.327,3.327,0,0,0,3.634,0,1.073,1.073,0,0,1,1.248,0,3.327,3.327,0,0,0,3.634,0,1.073,1.073,0,0,1,1.248,0,3.325,3.325,0,0,0,3.633,0,1.073,1.073,0,0,1,1.248,0,3.329,3.329,0,0,0,3.635,0,1.073,1.073,0,0,1,1.248,0,3.327,3.327,0,0,0,3.634,0,1.075,1.075,0,0,1,1.249,0,3.136,3.136,0,0,0,1.817.54H915v-6.33h-1.511Zm-13.6-23.44h11.333v2.23H899.889v-2.23Zm-15.111,22.7a6.384,6.384,0,0,1,6.422-6.33h6.044a2.622,2.622,0,0,0,2.645-2.6v-0.37h4.155v-2.23h-4.155v-2.24h4.155v-2.23h-4.155v-2.23h11.333v18.97H884.778v-0.74Zm26.647,4.09a3.213,3.213,0,0,0-1.817.54,1.032,1.032,0,0,1-1.248,0,3.329,3.329,0,0,0-3.635,0,1.032,1.032,0,0,1-1.248,0,3.327,3.327,0,0,0-3.634,0,1.032,1.032,0,0,1-1.248,0,3.327,3.327,0,0,0-3.634,0,1.031,1.031,0,0,1-1.247,0,3.329,3.329,0,0,0-3.635,0,1.032,1.032,0,0,1-1.248,0,3.325,3.325,0,0,0-3.633,0,1.032,1.032,0,0,1-1.248,0,3.77,3.77,0,0,0-.684-0.34v-1.31h29.467v1.38A3.016,3.016,0,0,0,911.425,1613.02Z" transform="translate(-881 -1584)"/>
</svg>
