<svg xmlns="http://www.w3.org/2000/svg" width="52" height="52" viewBox="0 0 52 52">
  <defs>
    <style>
      .cls-1 {
        fill: #fff;
        fill-rule: evenodd;
      }
    </style>
  </defs>
  <path class="cls-1" d="M1368.87,7357.7h5.88v5.88h1.97v-5.88h5.88v-1.96h-5.88v-5.89h-1.97v5.89h-5.88v1.96Zm2.41,27.98,4.16-4.17,4.85,4.86,1.39-1.39-4.85-4.85,4.16-4.17-1.39-1.38-4.16,4.16-3.47-3.47-1.39,1.39,3.47,3.47-4.16,4.16Zm33.07-10.88,1.39,1.39-9.71,9.71-1.39-1.39Zm-10.95-19.06h13.73v1.96H1393.4v-1.96Zm13.73-13.74h-38.26a6.875,6.875,0,0,0-6.87,6.87v38.26a6.875,6.875,0,0,0,6.87,6.87h38.26a6.875,6.875,0,0,0,6.87-6.87v-38.26A6.875,6.875,0,0,0,1407.13,7342Zm-19.62,50.04h-18.64a4.912,4.912,0,0,1-4.91-4.91v-17.66h23.55v22.57h0Zm0-24.53h-23.55v-18.64a4.912,4.912,0,0,1,4.91-4.91h18.64v23.55Zm24.53,19.62a4.912,4.912,0,0,1-4.91,4.91h-17.66v-22.57h22.57v17.66h0Zm0-19.62h-22.57v-23.55h17.66a4.912,4.912,0,0,1,4.91,4.91v18.64Z" transform="translate(-1362 -7342)"/>
</svg>
