<svg xmlns="http://www.w3.org/2000/svg" width="52" height="52" viewBox="0 0 52 52">
  <defs>
    <style>
      .cls-1 {
        fill: #fff;
        fill-rule: evenodd;
      }
    </style>
  </defs>
  <path class="cls-1" d="M525.858,4539.35l-4.6,6.45v1.94h12.581v-8.39h-7.981Zm6.3,6.71h-9.033l3.594-5.03h5.439v5.03Zm2.516-6.71v8.39h12.581v-1.94l-4.6-6.45h-7.981Zm1.678,6.71v-5.03h5.439l3.6,5.03h-9.034Zm-5.033,2.52h2.517v1.68h-2.517v-1.68ZM518.742,4562a2.515,2.515,0,1,0-2.516-2.52A2.521,2.521,0,0,0,518.742,4562Zm0-3.36a0.84,0.84,0,1,1-.839.84A0.842,0.842,0,0,1,518.742,4558.64Zm37.742,1.68a2.254,2.254,0,0,0,2.516-2.51v-7.55a4.413,4.413,0,0,0-3.152-4.17l-3.352-.84a3.56,3.56,0,0,1-2.04-1.35l-4.214-5.9a4.73,4.73,0,0,0-4.016-2H526.29a4.741,4.741,0,0,0-4.036,2.03l-4.145,5.81a3.649,3.649,0,0,1-2.02,1.4l-5.066.84A5,5,0,0,0,507,4551.1v5.87a3.394,3.394,0,0,0,3.355,3.35h2.583a5.888,5.888,0,0,0,1.7,3.36H507v6.71h14.97l8.177,2.51-8.3,2.56,0.029,1.61,7.894,2.12-7.788,2.1H507V4588h52v-6.71H544.015l-7.789-2.1,7.895-2.12,0.029-1.61-8.3-2.56,8.178-2.51H559v-6.71h-7.642a5.877,5.877,0,0,0,1.7-3.36h3.422Zm-41.936-.84a4.194,4.194,0,1,1,4.194,4.2A4.2,4.2,0,0,1,514.548,4559.48Zm10,0.84h16.908a5.888,5.888,0,0,0,1.7,3.36H522.842A5.846,5.846,0,0,0,524.546,4560.32Zm32.776,22.65v3.35H508.677v-3.35h48.645Zm-19.76-1.68h-9.124l4.562-1.23Zm3.315-5.09L533,4578.32l-7.877-2.12,7.877-2.42ZM533,4572.02l-5.325-1.63h10.65Zm24.322-6.67v3.36H508.677v-3.36h48.645Zm-10.064-1.67a4.2,4.2,0,1,1,4.194-4.2A4.2,4.2,0,0,1,547.258,4563.68Zm0-10.07a5.882,5.882,0,0,0-5.8,5.03H524.546a5.864,5.864,0,0,0-11.608,0h-2.583a1.717,1.717,0,0,1-1.678-1.67v-4.2h1.678v1.68h1.677v-1.68a1.508,1.508,0,0,0-1.677-1.67h-1.678a3.262,3.262,0,0,1,2.654-3.37l5.059-.84a5.309,5.309,0,0,0,3.034-2.02l4.172-5.84a3.022,3.022,0,0,1,2.694-1.35h15.936A3.005,3.005,0,0,1,544.9,4539l4.243,5.94a5.407,5.407,0,0,0,2.946,1.94l3.417,0.85a2.785,2.785,0,0,1,1.817,2.53v7.55c0,0.72-.118.83-0.838,0.83h-3.422A5.882,5.882,0,0,0,547.258,4553.61Zm0,3.36a2.515,2.515,0,1,0,2.516,2.51A2.519,2.519,0,0,0,547.258,4556.97Zm0,3.35a0.84,0.84,0,1,1,.839-0.84A0.836,0.836,0,0,1,547.258,4560.32Zm-33.549,11.74h1.678v4.2h-1.678v-4.2Zm-3.354,1.68h1.677v5.87h-1.677v-5.87Zm42.774-1.68h1.677v3.36h-1.677v-3.36Zm-3.355,0h1.678v7.55h-1.678v-7.55Zm-11.742-16.77h1.678v1.68h-1.678v-1.68Zm-3.355,0h1.678v1.68h-1.678v-1.68Zm19.291,0h1.677v1.68h-1.677v-1.68Zm-43.613,28.52h1.677v1.67h-1.677v-1.67Zm3.354,0h1.678v1.67h-1.678v-1.67Z" transform="translate(-507 -4536)"/>
</svg>
