<svg xmlns="http://www.w3.org/2000/svg" width="32" height="24" viewBox="0 0 32 24">
  <defs>
    <style>
      .cls-1 {
        fill: #fff;
        fill-rule: evenodd;
      }
    </style>
  </defs>
  <path class="cls-1" d="M905.277,1842l-1.8,1.06,0.526,0.89-5.732,3.37-12.117,2.13a3.813,3.813,0,0,0-2.627,5.69l5.3,8.98a3.806,3.806,0,0,0,3,1.87,2.686,2.686,0,0,0,.283.01,3.837,3.837,0,0,0,2.964-1.41l7.74-9.56,5.733-3.37,0.526,0.89,1.8-1.06Zm-3.842,11.43-7.977,9.84a1.722,1.722,0,0,1-2.831-.21l-5.3-8.98a1.73,1.73,0,0,1,1.19-2.58l9.01-1.58,7.328,2.67Zm3.748-2.21-5.819-2.12,5.7-3.35,2.429,4.11Zm7.719,5.89-0.775-.86-0.775.86c-0.35.38-2.1,2.41-2.1,4.15a2.873,2.873,0,0,0,5.745,0C915,1859.52,913.253,1857.49,912.9,1857.11Zm-0.775,4.94a0.792,0.792,0,0,1-.785-0.79,3.983,3.983,0,0,1,.785-1.76,4.035,4.035,0,0,1,.786,1.76A0.793,0.793,0,0,1,912.127,1862.05Z" transform="translate(-883 -1842)"/>
</svg>
