<svg xmlns="http://www.w3.org/2000/svg" width="30" height="32" viewBox="0 0 30 32">
  <defs>
    <style>
      .cls-1 {
        fill: #fff;
        fill-rule: evenodd;
      }
    </style>
  </defs>
  <path class="cls-1" d="M911.051,1424.61c-1.31-.92-2.051-1.47-2.051-2.37v-2.31h1v-1.98h-1v-0.99h-2v0.99h-1v1.98h1v2.31c0,0.9-.741,1.45-2.051,2.37-0.155.1-.311,0.21-0.468,0.32L901,1418.04v-2.07h1v-1.98h-1V1413h-2v0.99h-1v1.98h1v2.07l-2.519,4.99c-0.483-.4-0.979-0.75-1.43-1.06-1.31-.91-2.051-1.47-2.051-2.37v-2.31h1v-1.98h-1v-0.99h-2v0.99h-1v1.98h1v2.31c0,0.9-.741,1.46-2.051,2.37-1.667,1.16-3.949,2.74-3.949,6.2a6.847,6.847,0,0,0,2,4.85V1445h26v-9.34a6.851,6.851,0,0,0,2-4.85C915,1427.35,912.718,1425.76,911.051,1424.61ZM900,1420.49l2.382,4.72h-4.076a5.367,5.367,0,0,0-.375-0.62Zm-13,7.68c0-2.43,1.5-3.48,3.1-4.58a11.339,11.339,0,0,0,1.9-1.55,11.339,11.339,0,0,0,1.9,1.55c0.129,0.09.257,0.17,0.384,0.26l-6.7,6.64A4.873,4.873,0,0,1,887,1428.17Zm8,14.85h-2v-3.3a1,1,0,0,0-2,0v3.3h-2v-5.28h6v5.28Zm0-7.26h-6v-1.98h6v1.98Zm0.4-3.96h-6.318l6.744-6.67a4.2,4.2,0,0,1,1.175,3.04A4.9,4.9,0,0,1,895.4,1431.8Zm7.6,2.64v8.58h-6v-10a6.851,6.851,0,0,0,2-4.85,7,7,0,0,0-.068-0.98H903v7.25h0Zm8,8.58h-2v-0.66a1,1,0,0,0-2,0v0.66h-2v-6.6h6v6.6Zm0.4-8.58H905v-7.42c0.355-.28.732-0.54,1.1-0.79a11.339,11.339,0,0,0,1.9-1.55,11.339,11.339,0,0,0,1.9,1.55c1.594,1.1,3.1,2.15,3.1,4.58A4.9,4.9,0,0,1,911.4,1434.44Zm-12.4-2.31h2v3.96h-2v-3.96Z" transform="translate(-885 -1413)"/>
</svg>
