<svg xmlns="http://www.w3.org/2000/svg" width="31" height="52" viewBox="0 0 31 52">
  <defs>
    <style>
      .cls-1 {
        fill: #fff;
        fill-rule: evenodd;
      }
    </style>
  </defs>
  <path id="Forma_1" data-name="Forma 1" class="cls-1" d="M832.17,7673.86v-6.2a7.906,7.906,0,0,0-2.4-5.68l-6.628-6.51a3.446,3.446,0,0,1,0-4.94l6.628-6.51a7.906,7.906,0,0,0,2.4-5.68v-6.2a2.633,2.633,0,0,0-.858-5.14H805.688a2.633,2.633,0,0,0-.858,5.14v6.2a7.906,7.906,0,0,0,2.4,5.68l6.628,6.51a3.448,3.448,0,0,1,0,4.94l-6.628,6.51a7.906,7.906,0,0,0-2.4,5.68v6.2a2.633,2.633,0,0,0,.858,5.14h25.624A2.633,2.633,0,0,0,832.17,7673.86Zm-26.482-45.18h25.624a0.955,0.955,0,1,1,0,1.91H805.688A0.955,0.955,0,1,1,805.688,7628.68Zm2.751,34.49,6.628-6.51a5.105,5.105,0,0,0,0-7.32l-6.628-6.51a6.246,6.246,0,0,1-1.893-4.49v-6.06h23.908v6.06a6.246,6.246,0,0,1-1.893,4.49l-6.628,6.51a5.105,5.105,0,0,0,0,7.32l6.628,6.51a6.246,6.246,0,0,1,1.893,4.49v6.06H806.546v-6.06A6.246,6.246,0,0,1,808.439,7663.17Zm22.873,14.14H805.688a0.95,0.95,0,1,1,0-1.9h25.624A0.95,0.95,0,1,1,831.312,7677.31Zm-21.963-5.5h18.3a0.852,0.852,0,0,0,.858-0.84v-3.31a4.37,4.37,0,0,0-1.323-3.14l-3.19-3.13a0.86,0.86,0,0,0-.606-0.25h-4.032v-11.6a6.894,6.894,0,0,1,1.2-1.55l4.354-4.28a0.834,0.834,0,0,0,.186-0.92,0.867,0.867,0,0,0-.793-0.52H812.7a0.864,0.864,0,0,0-.792.52,0.831,0.831,0,0,0,.186.92l4.353,4.28a6.894,6.894,0,0,1,1.2,1.55v11.6H813.61a0.86,0.86,0,0,0-.606.25l-3.19,3.13a4.37,4.37,0,0,0-1.323,3.14v3.31A0.852,0.852,0,0,0,809.349,7671.81Zm5.418-27.85h7.467l-2.89,2.83a9.761,9.761,0,0,0-.844.96,9.761,9.761,0,0,0-.844-0.96Zm-4.56,23.7a2.708,2.708,0,0,1,.821-1.95l2.938-2.88h9.068l2.938,2.88a2.708,2.708,0,0,1,.821,1.95v2.47H810.207v-2.47h0Z" transform="translate(-803 -7627)"/>
</svg>
