<svg xmlns="http://www.w3.org/2000/svg" width="20" height="25" viewBox="0 0 20 25">
  <defs>
    <style>
      .cls-1 {
        fill: #8c8c8c;
        fill-rule: evenodd;
      }
    </style>
  </defs>
  <path id="Forma_1" data-name="Forma 1" class="cls-1" d="M685.73,2262.29a1.063,1.063,0,0,0-1.465,0c-0.376.35-9.265,8.66-9.265,14.25a10.01,10.01,0,1,0,20,0C695,2270.95,686.11,2262.64,685.73,2262.29ZM685,2284.92a8.146,8.146,0,0,1-7.868-8.38c0-3.55,5.141-9.35,7.868-12.04,2.727,2.69,7.867,8.49,7.867,12.04A8.145,8.145,0,0,1,685,2284.92Zm-4.056-8.6a1.055,1.055,0,0,0-1.038-1.06H679.88a1.058,1.058,0,0,0-1.064,1.02,7.776,7.776,0,0,0,2.216,5.29,1.179,1.179,0,0,0,1.507.05,1.037,1.037,0,0,0,.047-1.48A5.9,5.9,0,0,1,680.944,2276.32Z" transform="translate(-675 -2262)"/>
</svg>
