<svg xmlns="http://www.w3.org/2000/svg" width="52" height="52" viewBox="0 0 52 52">
  <defs>
    <style>
      .cls-1 {
        fill: #fff;
        fill-rule: evenodd;
      }
    </style>
  </defs>
  <path class="cls-1" d="M1410.53,4546.4a3.473,3.473,0,0,0-3.23,2.22,6.056,6.056,0,0,0-4.95.57c-1.8.89-2.74,0.74-3.08,0.47v-2.39a0.871,0.871,0,0,0-.87-0.87h-5.2v-3.47h5.2a0.869,0.869,0,0,0,.87-0.86v-1.15a3.754,3.754,0,0,0,.8.09,7,7,0,0,0,3.05-.86c2.17-1.09,3.47-.62,3.96-0.33a3.478,3.478,0,1,0,.29-1.77,6.063,6.063,0,0,0-5.02.54c-1.8.9-2.74,0.74-3.08,0.47v-2.19a0.871,0.871,0,0,0-.87-0.87h-20.8a0.871,0.871,0,0,0-.87.87v1.17a6.248,6.248,0,0,0-4.72.65c-1.82.91-2.76,0.73-3.09,0.46a3.474,3.474,0,1,0-.31,1.77,3.326,3.326,0,0,0,1.12.18,6.931,6.931,0,0,0,3.06-.86c2.14-1.07,3.43-.62,3.94-0.34v2.17a0.869,0.869,0,0,0,.87.86h5.2v3.47h-5.2a0.871,0.871,0,0,0-.87.87v1.17a6.248,6.248,0,0,0-4.72.65c-1.82.91-2.76,0.73-3.09,0.46a3.474,3.474,0,1,0-.31,1.77,3.326,3.326,0,0,0,1.12.18,6.931,6.931,0,0,0,3.06-.86c2.14-1.07,3.43-.63,3.94-0.34v2.17a0.869,0.869,0,0,0,.87.86h4.32l-6.04,33.65a0.878,0.878,0,0,0,.7,1.01,0.757,0.757,0,0,0,.15.01,0.878,0.878,0,0,0,.86-0.71l0.52-2.92,9.89-6.6,9.89,6.6,0.52,2.92a0.869,0.869,0,0,0,.86.71c0.05,0,.1-0.01.15-0.01a0.878,0.878,0,0,0,.7-1.01l-6.04-33.65h4.32a0.862,0.862,0,0,0,.87-0.86v-0.96a3.754,3.754,0,0,0,.8.09,7,7,0,0,0,3.05-.86c2.22-1.11,3.52-.6,4-0.31A3.463,3.463,0,1,0,1410.53,4546.4Zm0-8.67a1.735,1.735,0,1,1-1.73,1.74A1.741,1.741,0,0,1,1410.53,4537.73Zm-45.06,3.47a1.735,1.735,0,1,1,1.73-1.73A1.739,1.739,0,0,1,1365.47,4541.2Zm0,10.4a1.735,1.735,0,1,1,1.73-1.73A1.739,1.739,0,0,1,1365.47,4551.6Zm13-10.4v-3.47h19.06v3.47h-19.06Zm13,1.73v3.47h-6.94v-3.47h6.94Zm-9.4,19.39,4.49,3.36-5.89,4.42Zm0.34-1.91,1.24-6.92c0.01-.06.01-0.11,0.02-0.16h8.67a0.915,0.915,0,0,0,.01.16l1.24,6.92c-0.01.01-.03,0.02-0.04,0.03l-5.55,4.16-5.55-4.16C1382.44,4560.43,1382.42,4560.42,1382.41,4560.41Zm-3.87,21.59,1.68-9.41,6.22,4.14Zm3.16-10.51,6.3-4.72,6.3,4.72-6.3,4.2Zm15.76,10.51-7.9-5.27,6.22-4.14Zm-2.13-11.9-5.89-4.42,4.49-3.36Zm2.2-18.5h-19.06v-3.47h19.06v3.47h0Zm13,0a1.735,1.735,0,1,1,1.74-1.73A1.737,1.737,0,0,1,1410.53,4551.6Z" transform="translate(-1362 -4536)"/>
</svg>
