<svg xmlns="http://www.w3.org/2000/svg" width="27" height="32" viewBox="0 0 27 32">
  <defs>
    <style>
      .cls-1 {
        fill: #fff;
        fill-rule: evenodd;
      }
    </style>
  </defs>
  <path id="горюч" class="cls-1" d="M1020.54,1699.45a1.133,1.133,0,0,0,1.07.26,16.847,16.847,0,0,0,9.57-8.91c1.35-3,1.03-6.51-.93-10.11a21.371,21.371,0,0,0-3.27-4.44,1.173,1.173,0,0,0-.94-0.32,1.138,1.138,0,0,0-.81.57l-2.06,3.64c-1.01-2.21-1.46-7.05-1.84-11.08a1.154,1.154,0,0,0-.72-0.98,1.1,1.1,0,0,0-1.16.21c-3.64,3.37-5.71,5.94-7.33,10.74l-1.69-2.57a1.14,1.14,0,0,0-.83-0.51,1.118,1.118,0,0,0-.9.33c-0.13.14-3.05,3.26-3.67,11.44-0.28,3.66,1.49,6.93,5.12,9.5a21.3,21.3,0,0,0,5.4,2.7,0.887,0.887,0,0,0,.32.08h0a1.177,1.177,0,0,0,1.13-1.2,0.858,0.858,0,0,0-.02-0.23,11.945,11.945,0,0,1,1.45-6.8c1.38,2.59,2,4.96,1.73,6.62A1.3,1.3,0,0,0,1020.54,1699.45Zm-1.09-10.53a1.116,1.116,0,0,0-.91-0.53,1.1,1.1,0,0,0-.94.47,14.64,14.64,0,0,0-2.9,8.22c-2.63-1.15-7.79-4.05-7.39-9.14a23.516,23.516,0,0,1,1.73-7.74c0.17-.39.34-0.7,0.49-0.98l2.09,3.17a1.072,1.072,0,0,0,1.11.49,1.139,1.139,0,0,0,.9-0.84c1.37-5.17,2.98-7.64,5.67-10.36,0.64,6.21,1.33,10.13,3.4,11.52a1.08,1.08,0,0,0,.87.15,1.152,1.152,0,0,0,.72-0.54l2.1-3.72a18.8,18.8,0,0,1,1.92,2.83c1.59,2.94,1.87,5.59.83,7.9a14.822,14.822,0,0,1-6.66,7.01A19.384,19.384,0,0,0,1019.45,1688.92Z" transform="translate(-1005 -1668)"/>
</svg>
