<svg xmlns="http://www.w3.org/2000/svg" width="38" height="32" viewBox="0 0 38 32">
  <defs>
    <style>
      .cls-1 {
        fill: #fff;
        fill-rule: evenodd;
      }
    </style>
  </defs>
  <path id="Forma_1" data-name="Forma 1" class="cls-1" d="M881.142,1771.88H879.96a0.94,0.94,0,1,0,0,1.88h1.182A0.94,0.94,0,1,0,881.142,1771.88Zm0,3.42H879.96a0.945,0.945,0,1,0,0,1.89h1.182A0.945,0.945,0,1,0,881.142,1775.3Zm3.72-3.42h-1.183a0.94,0.94,0,1,0,0,1.88h1.183A0.94,0.94,0,1,0,884.862,1771.88Zm0,3.42h-1.183a0.945,0.945,0,1,0,0,1.89h1.183A0.945,0.945,0,1,0,884.862,1775.3Zm17.622-.4H901.3a0.94,0.94,0,1,0,0,1.88h1.182A0.94,0.94,0,1,0,902.484,1774.9Zm0,3.43H901.3a0.94,0.94,0,1,0,0,1.88h1.182A0.94,0.94,0,1,0,902.484,1778.33Zm3.72-3.43h-1.183a0.94,0.94,0,1,0,0,1.88H906.2A0.94,0.94,0,1,0,906.2,1774.9Zm0,3.43h-1.183a0.94,0.94,0,1,0,0,1.88H906.2A0.94,0.94,0,1,0,906.2,1778.33Zm6.847-25.33h-26.9a0.94,0.94,0,1,0,0,1.88h0.768v13.18h-9.975a0.944,0.944,0,0,0-.949.94v15.06a0.944,0.944,0,0,0,.949.94h34.386a0.944,0.944,0,0,0,.948-0.94v-29.18h0.768A0.94,0.94,0,1,0,913.051,1753Zm-15.932,19.68h13.267v10.44H897.119v-10.44Zm2.3-1.88,4.333-2.75,4.332,2.75H899.42Zm4.843-4.66a0.944,0.944,0,0,0-1.021,0l-7.582,4.81a0.932,0.932,0,0,0-.438.79v11.38h-6.4v-28.24h21.564v15.14Zm-26.366,3.8h9.028v13.18H877.9v-13.18Zm17.129-11.33H892.88a0.945,0.945,0,1,0,0,1.89h2.146A0.945,0.945,0,1,0,895.026,1758.61Zm5.651,0h-2.146a0.945,0.945,0,1,0,0,1.89h2.146A0.945,0.945,0,1,0,900.677,1758.61Zm3.5,1.89h2.146a0.945,0.945,0,1,0,0-1.89h-2.146A0.945,0.945,0,1,0,904.182,1760.5Zm-9.156,2.16H892.88a0.945,0.945,0,1,0,0,1.89h2.146A0.945,0.945,0,1,0,895.026,1762.66Zm5.651,0h-2.146a0.945,0.945,0,1,0,0,1.89h2.146A0.945,0.945,0,1,0,900.677,1762.66Zm5.651,0h-2.146a0.945,0.945,0,1,0,0,1.89h2.146A0.945,0.945,0,1,0,906.328,1762.66Z" transform="translate(-876 -1753)"/>
</svg>
