<svg xmlns="http://www.w3.org/2000/svg" width="25.031" height="24" viewBox="0 0 25.031 24">
  <defs>
    <style>
      .cls-1 {
        fill: #8c8c8c;
        fill-rule: evenodd;
      }
    </style>
  </defs>
  <path id="Forma_1" data-name="Forma 1" class="cls-1" d="M699.371,2323.22l-4.9-4.98a0.889,0.889,0,0,0-.427-0.24l-4.855-.98a0.817,0.817,0,0,0-.755.23l-2.913,2.96a0.857,0.857,0,0,0,0,1.2l2.321,2.36-12.6,12.82a0.857,0.857,0,0,0,0,1.2l2.913,2.96a0.824,0.824,0,0,0,1.182,0l12.6-12.81,1.395,1.42a2.12,2.12,0,0,0,3.036,0l3-3.06A2.2,2.2,0,0,0,699.371,2323.22Zm-20.622,15.73-1.731-1.76,12.008-12.21,1.73,1.76Zm19.44-13.85-3,3.05a0.466,0.466,0,0,1-.671,0l-7.221-7.34,2.006-2.04,4.168,0.85,4.72,4.8A0.486,0.486,0,0,1,698.189,2325.1Z" transform="translate(-675 -2317)"/>
</svg>
