<?xml version="1.0" encoding="utf-8"?>
<!-- Generator: Adobe Illustrator 19.0.0, SVG Export Plug-In . SVG Version: 6.00 Build 0)  -->
<svg version="1.1" id="Шар_1" xmlns="http://www.w3.org/2000/svg" xmlns:xlink="http://www.w3.org/1999/xlink" x="0px" y="0px"
	 viewBox="-295 384 20 25" style="enable-background:new -295 384 20 25;" xml:space="preserve">
<style type="text/css">
	.st0{fill:#8C8C8C;}
</style>
<path id="Forma_1_1_" class="st0" d="M-285.7,384.3c0.4-0.4,1.1-0.4,1.5,0c0.4,0.4,9.3,8.7,9.3,14.3c0.2,5.5-4,10.2-9.5,10.4
	s-10.2-4-10.4-9.6c0-0.3,0-0.6,0-0.9C-295,393-286.1,384.6-285.7,384.3z M-285,406.9c4.5-0.2,8-3.9,7.9-8.4c0-3.6-5.1-9.4-7.9-12
	c-2.7,2.7-7.9,8.5-7.9,12C-293,403-289.5,406.8-285,406.9z M-280.9,398.3c0-0.6,0.5-1.1,1-1.1h0c0.6,0,1,0.4,1.1,1
	c0,2-0.8,3.9-2.2,5.3c-0.4,0.4-1.1,0.4-1.5,0.1c-0.4-0.4-0.4-1-0.1-1.5c0,0,0,0,0,0C-281.6,401.1-281,399.8-280.9,398.3
	L-280.9,398.3z"/>
</svg>
