<svg xmlns="http://www.w3.org/2000/svg" width="27.03" height="32" viewBox="0 0 27.03 32">
  <defs>
    <style>
      .cls-1 {
        fill: #fff;
        fill-rule: evenodd;
      }
    </style>
  </defs>
  <path class="cls-1" d="M1026.62,1608.85a8.851,8.851,0,0,0,1.16-4.39c0-2.15-1.65-5.26-3.53-8.09l7.59-7.69a0.574,0.574,0,0,0,0-.79,0.543,0.543,0,0,0-.78,0l-7.44,7.54a76.475,76.475,0,0,0-4.76-6.12,0.557,0.557,0,0,0-.82,0,73.132,73.132,0,0,0-4.72,6.06l-7.38-7.48a0.543,0.543,0,0,0-.78,0,0.574,0.574,0,0,0,0,.79l7.53,7.63c-1.9,2.85-3.57,5.98-3.57,8.15a8.9,8.9,0,0,0,1.19,4.46l-5.06,5.13a0.555,0.555,0,0,0,0,.79,0.528,0.528,0,0,0,.39.16,0.507,0.507,0,0,0,.38-0.16l4.92-4.98a9.405,9.405,0,0,0,15.06-.06l4.97,5.04a0.555,0.555,0,0,0,.78,0,0.574,0.574,0,0,0,0-.79Zm-8.17-18.33c0.8,0.95,2.64,3.19,4.38,5.71l-4.33,4.39-4.39-4.45C1015.84,1593.68,1017.65,1591.47,1018.45,1590.52Zm-8.23,13.94c0-1.88,1.5-4.7,3.26-7.35l4.24,4.3-6.6,6.69A7.874,7.874,0,0,1,1010.22,1604.46Zm8.23,8.02a8.271,8.271,0,0,1-6.73-3.42l6.78-6.87,4.68,4.75a5.457,5.457,0,0,1-4.73,2.76,0.555,0.555,0,0,0,0,1.11,6.55,6.55,0,0,0,5.53-3.06l1.24,1.26A8.294,8.294,0,0,1,1018.45,1612.48Zm7.36-4.45-1.29-1.31a6.676,6.676,0,0,0,.52-2.58,0.557,0.557,0,0,0-.55-0.56,0.551,0.551,0,0,0-.55.56,5.733,5.733,0,0,1-.27,1.72l-4.4-4.45,4.19-4.24c1.74,2.63,3.22,5.42,3.22,7.29A7.845,7.845,0,0,1,1025.81,1608.03Zm-13.12-18.36a1.945,1.945,0,1,0-1.93-1.94A1.938,1.938,0,0,0,1012.69,1589.67Zm0-2.78a0.835,0.835,0,0,1,.82.84,0.825,0.825,0,1,1-1.65,0A0.837,0.837,0,0,1,1012.69,1586.89Zm5.48,0a1.945,1.945,0,1,0-1.92-1.94A1.94,1.94,0,0,0,1018.17,1586.89Zm0-2.78a0.837,0.837,0,0,1,.83.84A0.825,0.825,0,1,1,1018.17,1584.11Z" transform="translate(-1005 -1583)"/>
</svg>
