<svg xmlns="http://www.w3.org/2000/svg" width="52" height="52" viewBox="0 0 52 52">
  <defs>
    <style>
      .cls-1 {
        fill: #fff;
        fill-rule: evenodd;
      }
    </style>
  </defs>
  <path id="ключ" class="cls-1" d="M1114.14,7342a14.849,14.849,0,0,0-12.34,23.11l-24.53,24.52a0.929,0.929,0,0,0,0,1.31,0.948,0.948,0,0,0,.66.27,0.931,0.931,0,0,0,.66-0.27l3.98-3.98,6.78,6.77a0.908,0.908,0,0,0,.65.27,0.931,0.931,0,0,0,.66-0.27,0.942,0.942,0,0,0,0-1.32l-6.77-6.77,3.33-3.33,4.91,4.92a0.931,0.931,0,0,0,.66.27,0.908,0.908,0,0,0,.65-0.27,0.924,0.924,0,0,0,0-1.32l-4.91-4.91,3.33-3.33,6.77,6.77a0.931,0.931,0,0,0,.66.27,0.925,0.925,0,0,0,.65-1.58l-6.77-6.77,9.77-9.77A14.85,14.85,0,1,0,1114.14,7342Zm0,27.86a13,13,0,1,1,13-13A13.025,13.025,0,0,1,1114.14,7369.86Z" transform="translate(-1077 -7342)"/>
</svg>
