<svg xmlns="http://www.w3.org/2000/svg" width="29" height="32" viewBox="0 0 29 32">
  <defs>
    <style>
      .cls-1 {
        fill: #fff;
        fill-rule: evenodd;
      }
    </style>
  </defs>
  <path id="Forma_1" data-name="Forma 1" class="cls-1" d="M900.946,1503.17H899.8a9.4,9.4,0,0,0-8.792,9.37,8.757,8.757,0,0,0,4.135,7.78v2.7a1.444,1.444,0,0,0,.751,1.4,0.425,0.425,0,0,1,.2.33,0.286,0.286,0,0,1-.152.36,0.735,0.735,0,0,0-.707.77v1.74a0.709,0.709,0,0,0,.707.71h0.472a0.979,0.979,0,0,1,.654.31,6.286,6.286,0,0,0,3.312,1.35,6.181,6.181,0,0,0,3.312-1.35,0.982,0.982,0,0,1,.654-0.31h0.472a0.708,0.708,0,0,0,.707-0.71v-1.74a0.735,0.735,0,0,0-.707-0.77,0.285,0.285,0,0,1-.151-0.36,0.43,0.43,0,0,1,.195-0.33,1.445,1.445,0,0,0,.75-1.4v-2.7a8.757,8.757,0,0,0,4.135-7.78A9.4,9.4,0,0,0,900.946,1503.17Zm2.692,15.11-0.527.28v2.5a0.9,0.9,0,0,1-.715.88l-1.111.24a4.633,4.633,0,0,1-1.827,0l-1.111-.24a0.9,0.9,0,0,1-.715-0.88v-2.5l-0.527-.28a5.89,5.89,0,0,1-3.2-5.57,6.469,6.469,0,1,1,12.938,0A5.891,5.891,0,0,1,903.638,1518.28Zm8.6-14.04a0.834,0.834,0,0,0-.178-0.65c-0.087-.11-0.175-0.22-0.264-0.32a0.854,0.854,0,0,0-1.235-.07l-1.517,1.44a0.849,0.849,0,0,0-.068,1.15c0.019,0.02.033,0.04,0.053,0.06a0.855,0.855,0,0,0,1.142.16l1.713-1.2A0.875,0.875,0,0,0,912.239,1504.24Zm-11.955-2.46h0.076a0.852,0.852,0,0,0,.839-0.79l0.134-2.09a0.832,0.832,0,0,0-.228-0.63,0.882,0.882,0,0,0-.613-0.27c-0.142,0-.281.01-0.421,0.01a0.838,0.838,0,0,0-.61.28,0.854,0.854,0,0,0-.213.64l0.181,2.08A0.849,0.849,0,0,0,900.284,1501.78Zm-10.573,13.54a0.839,0.839,0,0,0-.958-0.64l-2.068.34a0.8,0.8,0,0,0-.567.36,0.835,0.835,0,0,0-.126.65c0.03,0.14.064,0.28,0.1,0.41a0.839,0.839,0,0,0,1.08.59l1.994-.64a0.844,0.844,0,0,0,.564-1C889.723,1515.37,889.717,1515.34,889.711,1515.32Zm2.009-9.26a0.423,0.423,0,0,1,.049-0.07,0.834,0.834,0,0,0-.1-1.14l-1.549-1.41a0.86,0.86,0,0,0-1.23.1c-0.089.11-.175,0.22-0.259,0.33a0.84,0.84,0,0,0,.2,1.21l1.743,1.16A0.853,0.853,0,0,0,891.72,1506.06Zm23.121,9.02a0.88,0.88,0,0,0-.573-0.35l-2.071-.29a0.852,0.852,0,0,0-.946.66,0.355,0.355,0,0,0-.021.08,0.838,0.838,0,0,0,.584.99l2,0.59a0.822,0.822,0,0,0,.668-0.08,0.833,0.833,0,0,0,.4-0.53c0.031-.14.061-0.28,0.089-0.41A0.826,0.826,0,0,0,914.841,1515.08Z" transform="translate(-886 -1498)"/>
</svg>
