<svg xmlns="http://www.w3.org/2000/svg" width="33" height="32" viewBox="0 0 33 32">
  <defs>
    <style>
      .cls-1 {
        fill: #fff;
        fill-rule: evenodd;
      }
    </style>
  </defs>
  <path id="Forma_1" data-name="Forma 1" class="cls-1" d="M910.035,1682.5a0.6,0.6,0,1,1-.6.6A0.6,0.6,0,0,1,910.035,1682.5Zm-21.618,0a0.6,0.6,0,1,1-.6.6A0.6,0.6,0,0,1,888.417,1682.5Zm1.8,1.8a0.6,0.6,0,1,1-.6.6A0.6,0.6,0,0,1,890.219,1684.3Zm3.6,0a0.6,0.6,0,1,1-.6.6A0.6,0.6,0,0,1,893.822,1684.3Zm-1.8,1.8a0.6,0.6,0,1,1-.6.6A0.6,0.6,0,0,1,892.02,1686.1Zm3.6,0a0.6,0.6,0,1,1-.6.6A0.6,0.6,0,0,1,895.623,1686.1Zm1.8,1.8a0.6,0.6,0,1,1-.6.6A0.6,0.6,0,0,1,897.425,1687.9Zm3.6,0a0.6,0.6,0,1,1-.6.6A0.6,0.6,0,0,1,901.028,1687.9Zm1.8-1.8a0.6,0.6,0,1,1-.6.6A0.6,0.6,0,0,1,902.829,1686.1Zm-3.6,3.6a0.6,0.6,0,0,1,.6.6,0.6,0.6,0,0,1-1.2,0A0.6,0.6,0,0,1,899.226,1689.7Zm5.4-5.4a0.6,0.6,0,1,1-.6.6A0.6,0.6,0,0,1,904.631,1684.3Zm3.6,0a0.6,0.6,0,1,1-.6.6A0.6,0.6,0,0,1,908.233,1684.3Zm-1.8,1.8a0.6,0.6,0,1,1-.6.6A0.6,0.6,0,0,1,906.432,1686.1Zm3.926,1.09,5.641-3.22-5.8-3.29,5.8-3.31L899.5,1668l-16.5,9.37,5.8,3.31-5.8,3.29,5.8,3.31-5.8,3.3,16.5,9.42,16.5-9.42-5.8-3.3,0.043-.02A0.538,0.538,0,0,0,910.358,1687.19ZM899.5,1669.38l14.073,7.99-4.586,2.62h0l-9.486,5.42-14.074-8.04Zm-9.817,12.18a0.6,0.6,0,0,0,.536.34,0.614,0.614,0,0,0,.415-0.17l1.359,0.77a0.6,0.6,0,1,0,.628.6,0.547,0.547,0,0,0-.079-0.28l6.2,3.54a0.589,0.589,0,0,0-.118.34,0.6,0.6,0,0,0,1.2,0,0.316,0.316,0,0,0-.018-0.08l6.036-3.45a0.6,0.6,0,0,0,1.187-.07,0.583,0.583,0,0,0-.243-0.47l1.322-.76a0.518,0.518,0,0,0,.122.03,0.6,0.6,0,0,0,.564-0.42l0.192-.11,4.584,2.6-1.191.68a0.592,0.592,0,0,0-.545-0.35,0.6,0.6,0,0,0-.6.6,0.584,0.584,0,0,0,.12.34l-2.369,1.35h0l-3.836,2.2a0.6,0.6,0,1,0-.546.31l-1.359.77a0.617,0.617,0,0,0-.416-0.17,0.6,0.6,0,0,0-.6.6,0.632,0.632,0,0,0,.028.14l-2.756,1.57-3.313-1.89a0.6,0.6,0,0,0-.564-0.42,0.522,0.522,0,0,0-.124.03l-1.322-.76a0.582,0.582,0,0,0,.245-0.47,0.6,0.6,0,0,0-1.187-.07l-6.038-3.44a0.574,0.574,0,0,0,.018-0.09,0.6,0.6,0,0,0-.6-0.6,0.614,0.614,0,0,0-.373.14l-0.816-.47Zm23.889,9.02-14.073,8.04-14.072-8.04,4.583-2.6,9.49,5.42,9.489-5.42Z" transform="translate(-883 -1668)"/>
</svg>
