<svg xmlns="http://www.w3.org/2000/svg" width="28" height="28" viewBox="0 0 28 28">
  <defs>
    <style>
      .cls-1 {
        fill: #fff;
        fill-rule: evenodd;
      }
    </style>
  </defs>
  <path id="Forma_1" data-name="Forma 1" class="cls-1" d="M1031.64,1500.05c-0.56.02-13.56,0.51-19.46,6.41-7.1,7.09-4.5,12.63-2.56,15.11l-4.26,4.25a1.28,1.28,0,0,0,.91,2.18,1.266,1.266,0,0,0,.9-0.38l4.25-4.24a9.123,9.123,0,0,0,5.76,2.08c3.13,0,6.28-1.56,9.36-4.65,5.9-5.89,6.4-18.89,6.41-19.45L1033,1500Zm-6.9,18.96c-2.56,2.55-5.17,3.9-7.56,3.9a6.566,6.566,0,0,1-3.94-1.35l3.01-3.01,5.13,1.23a1.032,1.032,0,0,0,.3.04,1.277,1.277,0,0,0,.29-2.52l-3.6-.87,2.58-2.57,2.79,0.63a0.9,0.9,0,0,0,.28.04,1.282,1.282,0,0,0,.29-2.53l-1.23-.28,3.29-3.28a1.28,1.28,0,0,0-1.81-1.81l-3.3,3.31-0.29-1.27a1.277,1.277,0,1,0-2.49.57l0.64,2.83-2.57,2.57-0.88-3.64a1.275,1.275,0,1,0-2.48.59l1.24,5.17-3,2.99c-2.43-3.28-1.54-7.4,2.55-11.49,4.14-4.13,12.9-5.27,16.33-5.56C1030.01,1506.12,1028.87,1514.87,1024.74,1519.01Z" transform="translate(-1005 -1500)"/>
</svg>
