<svg xmlns="http://www.w3.org/2000/svg" width="35" height="52" viewBox="0 0 35 52">
  <defs>
    <style>
      .cls-1 {
        fill: #fff;
        fill-rule: evenodd;
      }
    </style>
  </defs>
  <path id="Forma_1" data-name="Forma 1" class="cls-1" d="M544.652,7638.84a6.781,6.781,0,1,0-6.781,6.86A6.854,6.854,0,0,0,544.652,7638.84Zm-11.379,0a4.648,4.648,0,0,1,4.6-4.65,4.585,4.585,0,0,1,4.6,4.65A4.6,4.6,0,1,1,533.273,7638.84Zm14.373,4.87a16.327,16.327,0,0,0,1.382-5.42,11.158,11.158,0,1,0-22.314,0,16.377,16.377,0,0,0,1.36,5.42H516V7679h35v-35.29h-3.354Zm-9.775-14.5a9.078,9.078,0,0,1,8.964,9.18c0,0.78,0,4.47-8.964,19.04-3.174-5.09-8.964-15.16-8.964-19.14A9.049,9.049,0,0,1,537.871,7629.21Zm-19.688,23.35h6.127l3.606,5.66v9.94l-9.733,3v-18.6h0Zm0,24.23v-3.34l11.916-3.74v-8.07l5.357,8.4H548.8v6.75H518.183Zm30.623-8.96H536.669l-11.157-17.49h-7.329v-4.42h10.84a163.207,163.207,0,0,0,8.848,15.59,168.393,168.393,0,0,0,8.837-15.59h2.1v21.91h0Z" transform="translate(-516 -7627)"/>
</svg>
