<svg xmlns="http://www.w3.org/2000/svg" width="52" height="52" viewBox="0 0 52 52">
  <defs>
    <style>
      .cls-1 {
        fill: #fff;
        fill-rule: evenodd;
      }
    </style>
  </defs>
  <path class="cls-1" d="M843.133,4301.27h-3.52a6.865,6.865,0,0,0,.054-0.87,6.014,6.014,0,0,0-3.467-5.49v-29.18a0.814,0.814,0,0,0-.867-0.86h-13v-13a0.821,0.821,0,0,0-.866-0.87h-23.4a0.822,0.822,0,0,0-.867.87v49.4h-4.333a0.865,0.865,0,1,0,0,1.73h50.266A0.865,0.865,0,1,0,843.133,4301.27Zm-8.666-6.88a6.188,6.188,0,0,0-.867-0.06,5.806,5.806,0,0,0-1.9.32,0.846,0.846,0,0,0-.7-0.32,0.822,0.822,0,0,0-.867.87v0.27a5.7,5.7,0,0,0-.911.8c-0.044.05-.087,0.09-0.129,0.14a5.493,5.493,0,0,0-2.689-1.86,0.865,0.865,0,0,0-.6-0.22,0.8,0.8,0,0,0-.271.04,3.927,3.927,0,0,0-.6-0.04,4.584,4.584,0,0,0-1.65.27,1.372,1.372,0,0,1-.183.07,5.311,5.311,0,0,0-2.037-1.03,0.026,0.026,0,0,1-.024-0.01c-0.064-.01-0.129-0.03-0.194-0.04a0.858,0.858,0,0,0-.159-0.03c-0.023-.01-0.046-0.01-0.069-0.02a0.963,0.963,0,0,0-.168-0.02,0.2,0.2,0,0,0-.076-0.01,0.812,0.812,0,0,0-.155-0.02c-0.038,0-.077-0.01-0.115-0.01s-0.081-.01-0.122-0.01h-0.438a0.511,0.511,0,0,0-.123.01h-0.05a5,5,0,0,0-2.237.67V4266.6h17.334v27.79h0Zm-35.534-41.66H820.6v12.14h-4.333a0.814,0.814,0,0,0-.867.86v26.96a6.027,6.027,0,0,0-1.509-1.11,1.028,1.028,0,0,0-.149-0.08l-0.058-.03a5.921,5.921,0,0,0-2-.57h-0.03a2.039,2.039,0,0,0-.246-0.02c-0.022,0-.044-0.01-0.066-0.01h-0.28A5.9,5.9,0,0,0,807.6,4292v-0.27a0.867,0.867,0,0,0-1.733,0v1.74a0.93,0.93,0,0,0,.062.35,6.214,6.214,0,0,0-.842,2.33,6.036,6.036,0,0,0-2.687,1.01v-0.23a0.867,0.867,0,0,0-1.733,0v1.74a1.024,1.024,0,0,0,.038.28,6.007,6.007,0,0,0-.842,2.32h-0.929v-48.54h0Zm6.539,45.09c0.017,0,.035-0.01.052-0.01a0.646,0.646,0,0,0,.138-0.01h0.2a0.821,0.821,0,0,0,.866-0.87,4.293,4.293,0,0,1,4.334-4.33,4.228,4.228,0,0,1,4.246,3.73,0.948,0.948,0,0,0,.388.55l0.037,0.03a0.078,0.078,0,0,1,.041.02c0.032,0.02.065,0.03,0.1,0.05h0a0.529,0.529,0,0,0,.124.04h0a0.476,0.476,0,0,0,.172.02,0.84,0.84,0,0,0,.694-0.37h0l0.086-.08a3.483,3.483,0,0,1,2.774-1.39,3.335,3.335,0,0,1,1.695.47,5.263,5.263,0,0,0-1.689,3.59q-0.006.135-.006,0.27a5.14,5.14,0,0,0,.3,1.74H801.62A4.361,4.361,0,0,1,805.472,4297.82Zm16.606,3.45a3.724,3.724,0,0,1-.525-1.82,3.177,3.177,0,0,1,1.424-2.77,0.917,0.917,0,0,0,.4-0.09,3.407,3.407,0,0,1,4.854,1.82,0.785,0.785,0,0,0,.78.52,0.567,0.567,0,0,0,.264-0.08,0.714,0.714,0,0,0,.516-0.44,3.971,3.971,0,0,1,1.488-1.69,0.824,0.824,0,0,0,.348-0.19,4.383,4.383,0,0,1,1.977-.46,4.286,4.286,0,0,1,4.333,4.33,2.993,2.993,0,0,1-.086.87H822.078Zm-1.478-27.74a0.822,0.822,0,0,0-.867.87v1.73a0.867,0.867,0,1,0,1.734,0v-1.73A0.822,0.822,0,0,0,820.6,4273.53Zm0,15.6a0.822,0.822,0,0,0-.867.87v1.73a0.867,0.867,0,1,0,1.734,0V4290A0.822,0.822,0,0,0,820.6,4289.13Zm0-10.4a0.822,0.822,0,0,0-.867.87v1.73a0.867,0.867,0,1,0,1.734,0v-1.73A0.822,0.822,0,0,0,820.6,4278.73Zm0,5.2a0.822,0.822,0,0,0-.867.87v1.73a0.867,0.867,0,1,0,1.734,0v-1.73A0.822,0.822,0,0,0,820.6,4283.93Zm0-15.6a0.822,0.822,0,0,0-.867.87v1.73a0.867,0.867,0,1,0,1.734,0v-1.73A0.822,0.822,0,0,0,820.6,4268.33Zm5.2,8.67a0.822,0.822,0,0,0,.867-0.87v-1.73a0.867,0.867,0,1,0-1.734,0v1.73A0.822,0.822,0,0,0,825.8,4277Zm0-5.2a0.822,0.822,0,0,0,.867-0.87v-1.73a0.867,0.867,0,1,0-1.734,0v1.73A0.822,0.822,0,0,0,825.8,4271.8Zm0,10.4a0.822,0.822,0,0,0,.867-0.87v-1.73a0.867,0.867,0,1,0-1.734,0v1.73A0.822,0.822,0,0,0,825.8,4282.2Zm0,5.2a0.822,0.822,0,0,0,.867-0.87v-1.73a0.867,0.867,0,1,0-1.734,0v1.73A0.822,0.822,0,0,0,825.8,4287.4Zm0,5.2a0.822,0.822,0,0,0,.867-0.87V4290a0.867,0.867,0,1,0-1.734,0v1.73A0.822,0.822,0,0,0,825.8,4292.6Zm5.2-10.4a0.822,0.822,0,0,0,.867-0.87v-1.73a0.867,0.867,0,1,0-1.734,0v1.73A0.822,0.822,0,0,0,831,4282.2Zm0-5.2a0.822,0.822,0,0,0,.867-0.87v-1.73a0.867,0.867,0,1,0-1.734,0v1.73A0.822,0.822,0,0,0,831,4277Zm0,15.6a0.822,0.822,0,0,0,.867-0.87V4290a0.867,0.867,0,1,0-1.734,0v1.73A0.822,0.822,0,0,0,831,4292.6Zm0-5.2a0.822,0.822,0,0,0,.867-0.87v-1.73a0.867,0.867,0,1,0-1.734,0v1.73A0.822,0.822,0,0,0,831,4287.4Zm0-15.6a0.822,0.822,0,0,0,.867-0.87v-1.73a0.867,0.867,0,1,0-1.734,0v1.73A0.822,0.822,0,0,0,831,4271.8Zm-29.467,12.13a0.814,0.814,0,0,0,.867-0.86v-1.74a0.867,0.867,0,0,0-1.733,0v1.74A0.813,0.813,0,0,0,801.533,4283.93Zm0,5.2a0.814,0.814,0,0,0,.867-0.86v-1.74a0.867,0.867,0,0,0-1.733,0v1.74A0.813,0.813,0,0,0,801.533,4289.13Zm0,5.2a0.814,0.814,0,0,0,.867-0.86v-1.74a0.867,0.867,0,0,0-1.733,0v1.74A0.813,0.813,0,0,0,801.533,4294.33Zm0-36.4a0.814,0.814,0,0,0,.867-0.86v-1.74a0.867,0.867,0,0,0-1.733,0v1.74A0.813,0.813,0,0,0,801.533,4257.93Zm0,5.2a0.814,0.814,0,0,0,.867-0.86v-1.74a0.867,0.867,0,0,0-1.733,0v1.74A0.813,0.813,0,0,0,801.533,4263.13Zm0,5.2a0.814,0.814,0,0,0,.867-0.86v-1.74a0.867,0.867,0,0,0-1.733,0v1.74A0.813,0.813,0,0,0,801.533,4268.33Zm0,5.2a0.814,0.814,0,0,0,.867-0.86v-1.74a0.867,0.867,0,0,0-1.733,0v1.74A0.813,0.813,0,0,0,801.533,4273.53Zm0,5.2a0.814,0.814,0,0,0,.867-0.86v-1.74a0.867,0.867,0,0,0-1.733,0v1.74A0.813,0.813,0,0,0,801.533,4278.73Zm5.2-15.6a0.814,0.814,0,0,0,.867-0.86v-1.74a0.867,0.867,0,0,0-1.733,0v1.74A0.813,0.813,0,0,0,806.733,4263.13Zm0-5.2a0.814,0.814,0,0,0,.867-0.86v-1.74a0.867,0.867,0,0,0-1.733,0v1.74A0.813,0.813,0,0,0,806.733,4257.93Zm0,15.6a0.814,0.814,0,0,0,.867-0.86v-1.74a0.867,0.867,0,0,0-1.733,0v1.74A0.813,0.813,0,0,0,806.733,4273.53Zm0-5.2a0.814,0.814,0,0,0,.867-0.86v-1.74a0.867,0.867,0,0,0-1.733,0v1.74A0.813,0.813,0,0,0,806.733,4268.33Zm0,10.4a0.814,0.814,0,0,0,.867-0.86v-1.74a0.867,0.867,0,0,0-1.733,0v1.74A0.813,0.813,0,0,0,806.733,4278.73Zm0,5.2a0.814,0.814,0,0,0,.867-0.86v-1.74a0.867,0.867,0,0,0-1.733,0v1.74A0.813,0.813,0,0,0,806.733,4283.93Zm0,5.2a0.814,0.814,0,0,0,.867-0.86v-1.74a0.867,0.867,0,0,0-1.733,0v1.74A0.813,0.813,0,0,0,806.733,4289.13Zm5.2-20.8a0.814,0.814,0,0,0,.867-0.86v-1.74a0.867,0.867,0,0,0-1.733,0v1.74A0.813,0.813,0,0,0,811.933,4268.33Zm0-5.2a0.814,0.814,0,0,0,.867-0.86v-1.74a0.867,0.867,0,0,0-1.733,0v1.74A0.813,0.813,0,0,0,811.933,4263.13Zm0-5.2a0.814,0.814,0,0,0,.867-0.86v-1.74a0.867,0.867,0,0,0-1.733,0v1.74A0.813,0.813,0,0,0,811.933,4257.93Zm0,31.2a0.814,0.814,0,0,0,.867-0.86v-1.74a0.867,0.867,0,0,0-1.733,0v1.74A0.813,0.813,0,0,0,811.933,4289.13Zm0-5.2a0.814,0.814,0,0,0,.867-0.86v-1.74a0.867,0.867,0,0,0-1.733,0v1.74A0.813,0.813,0,0,0,811.933,4283.93Zm0-5.2a0.814,0.814,0,0,0,.867-0.86v-1.74a0.867,0.867,0,0,0-1.733,0v1.74A0.813,0.813,0,0,0,811.933,4278.73Zm0-5.2a0.814,0.814,0,0,0,.867-0.86v-1.74a0.867,0.867,0,0,0-1.733,0v1.74A0.813,0.813,0,0,0,811.933,4273.53Zm5.2-10.4a0.814,0.814,0,0,0,.867-0.86v-1.74a0.867,0.867,0,0,0-1.733,0v1.74A0.813,0.813,0,0,0,817.133,4263.13Zm0-5.2a0.814,0.814,0,0,0,.867-0.86v-1.74a0.867,0.867,0,0,0-1.733,0v1.74A0.813,0.813,0,0,0,817.133,4257.93Z" transform="translate(-792 -4251)"/>
</svg>
