<svg xmlns="http://www.w3.org/2000/svg" width="42" height="52" viewBox="0 0 42 52">
  <defs>
    <style>
      .cls-1 {
        fill: #fff;
        fill-rule: evenodd;
      }
    </style>
  </defs>
  <path class="cls-1" d="M1379.78,7648.2a1.285,1.285,0,0,0-1.28-1.29h-10.22a1.29,1.29,0,0,0,0,2.58h10.22A1.285,1.285,0,0,0,1379.78,7648.2Zm27.94-1.29H1397.5a1.29,1.29,0,0,0,0,2.58h10.22A1.29,1.29,0,0,0,1407.72,7646.91ZM1388,7639.9a1.291,1.291,0,0,0,1.28-1.29v-10.32a1.28,1.28,0,1,0-2.56,0v10.32A1.291,1.291,0,0,0,1388,7639.9Zm6.71,2.82a1.266,1.266,0,0,0,.9-0.38l7.24-7.31a1.3,1.3,0,0,0,0-1.83,1.268,1.268,0,0,0-1.8,0l-7.24,7.31a1.3,1.3,0,0,0,0,1.83A1.283,1.283,0,0,0,1394.71,7642.72Zm-14.32-.38a1.249,1.249,0,0,0,.9.38,1.266,1.266,0,0,0,.9-0.38,1.3,1.3,0,0,0,0-1.83l-7.24-7.31a1.268,1.268,0,0,0-1.8,0,1.3,1.3,0,0,0,0,1.83Zm22.94,13.99a5.235,5.235,0,0,0-3.43-1.3h-7.31v-5.21c0-2.49-.73-4.3-2.19-5.39-2.29-1.69-5.41-.74-5.55-0.69a1.279,1.279,0,0,0-.89,1.22v6.28a5.8,5.8,0,0,1-2.7,4.83,10.6,10.6,0,0,1-2.94,1.49l-0.12.03a2.629,2.629,0,0,0-1.97-.89h-4.85a2.644,2.644,0,0,0-2.63,2.65v16.06a2.653,2.653,0,0,0,2.63,2.66h4.87a2.565,2.565,0,0,0,1.68-.63,5.323,5.323,0,0,0,3.74,1.56h15.24a7,7,0,0,0,3.91-1.07,5.7,5.7,0,0,0,2.37-4.16l1.97-12.34A5.566,5.566,0,0,0,1403.33,7656.33Zm-27.01,19.08a0.071,0.071,0,0,1-.07.08h-4.87a0.071,0.071,0,0,1-.07-0.08v-16.06a0.068,0.068,0,0,1,.07-0.07h4.87a0.068,0.068,0,0,1,.07.07v16.06Zm26.32-14.38-1.97,12.37a0.109,0.109,0,0,1-.01.05c-0.08.74-.36,2.98-3.75,2.98h-15.24a2.829,2.829,0,0,1-2.76-2.39c-0.01-.05-0.02-0.11-0.03-0.15v-13.81l0.07-.02c0.02,0,.03-0.01.05-0.01a12.581,12.581,0,0,0,3.68-1.83,8.439,8.439,0,0,0,3.83-6.98v-5.22a3.512,3.512,0,0,1,2.38.48c0.77,0.57,1.15,1.69,1.15,3.31v6.5a1.289,1.289,0,0,0,1.28,1.28h8.58a2.759,2.759,0,0,1,1.77.68A3.04,3.04,0,0,1,1402.64,7661.03Z" transform="translate(-1367 -7627)"/>
</svg>
