<svg xmlns="http://www.w3.org/2000/svg" width="32" height="32" viewBox="0 0 32 32">
  <defs>
    <style>
      .cls-1 {
        fill: #fff;
        fill-rule: evenodd;
      }
    </style>
  </defs>
  <path class="cls-1" d="M1037,1854.02a3.438,3.438,0,0,0-3.48-3.42l-7.87-.06a0.587,0.587,0,0,1-.51-0.85c0.44-.9,1.12-2.24,1.29-2.51,1.1-1.73,3.07-4.86.89-8.07a2.236,2.236,0,0,0-3.41-.55,18.256,18.256,0,0,0-3.21,3.9c-0.61.96-5.45,6.22-6.89,8.34-0.03,0-.1.06-0.3,0.16a1.39,1.39,0,0,0-1.03-.47h-6.12a1.37,1.37,0,0,0-1.36,1.37v16.22a1.364,1.364,0,0,0,1.36,1.37h6.12a1.292,1.292,0,0,0,1.01-.48,39.411,39.411,0,0,0,8.52,1.03c0.47,0,6.3-.75,8.37-0.68,2.26,0.07,5.15-1.34,3.72-4.48a3.534,3.534,0,0,0,1.28-4.17,3.727,3.727,0,0,0,.69-4.4A3.284,3.284,0,0,0,1037,1854.02Zm-25.88,12.77h-3.46v-13.64h3.47v13.64h-0.01Zm15.98,0c-0.54.06-1.01,0.14-1.56,0.2-0.75.14-1.5,0.2-2.25,0.28a35.881,35.881,0,0,1-9.45-1v-12.51a3.539,3.539,0,0,0,2.22-1.52c1.37-1.98,6.24-6.97,6.96-8.34a27.014,27.014,0,0,1,2.01-2.64,0.306,0.306,0,0,1,.52.14,3.437,3.437,0,0,1-.09,2.06,32.616,32.616,0,0,1-2.1,3.31c-0.55.82-2.05,3.28-.95,5.06a3.213,3.213,0,0,0,2.86,1.37h8.34a0.725,0.725,0,0,1,.68.44,0.757,0.757,0,0,1-.6.98,2.937,2.937,0,0,0-.51-0.05,1.382,1.382,0,0,0-1.43,1.28,1.36,1.36,0,0,0,1.34,1.45,0.78,0.78,0,0,1,.77.69,0.945,0.945,0,0,1-.55.84,3.627,3.627,0,0,0-.94-0.16,1.4,1.4,0,0,0-1.45,1.28,1.367,1.367,0,0,0,1.36,1.46,0.618,0.618,0,0,1,.62.55,0.826,0.826,0,0,1-.96.81,1.377,1.377,0,0,0-1.37,1.36,1.357,1.357,0,0,0,.55,1.25,0.777,0.777,0,0,1,.48.68,0.692,0.692,0,0,1-.77.61A30.34,30.34,0,0,0,1027.1,1866.79Z" transform="translate(-1005 -1838)"/>
</svg>
