<svg xmlns="http://www.w3.org/2000/svg" width="65" height="52" viewBox="0 0 65 52">
  <defs>
    <style>
      .cls-1 {
        fill: #fff;
        fill-rule: evenodd;
      }
    </style>
  </defs>
  <path class="cls-1" d="M844.3,7377.54V7342H824.866v11.85h-6.7v14.48h-2.681v-13.82H793.371v13.82H786V7394h65v-16.46h-6.7Zm-48.918-21.06h18.093v2.63H795.381v-2.63Zm0,4.61h18.093v7.24H795.381v-7.24Zm10.722,9.21v9.22h-6.031v-9.22H806.1Zm12.062,21.72H788.01V7370.3h10.052v11.19h10.051V7370.3h10.052v21.72Zm8.711-48.05h15.413v9.88H826.876v-9.88Zm6.7,11.85v9.88h-4.69v-9.88h4.69Zm-4.69,36.2h-8.712v-36.2h6.7v11.85h8.712v-11.85h6.7v21.72h-13.4v14.48Zm20.1,0H830.9v-12.5H848.99v12.5Zm-40.542-28.3h2.681v1.98h-2.681v-1.98Zm-4.02,0h2.68v1.98h-2.68v-1.98Zm36.185,19.09h5.361v1.97h-5.361v-1.97Zm-4.02,3.95h9.381v1.97h-9.381v-1.97Zm0-37.52h2.68v1.97h-2.68v-1.97Zm-4.021,0h2.681v1.97h-2.681v-1.97Z" transform="translate(-786 -7342)"/>
</svg>
