<svg xmlns="http://www.w3.org/2000/svg" width="52" height="52" viewBox="0 0 52 52">
  <defs>
    <style>
      .cls-1 {
        fill: #fff;
        fill-rule: evenodd;
      }
    </style>
  </defs>
  <path class="cls-1" d="M1125.53,4251h-44.98a3.513,3.513,0,0,0-3.55,3.55v47.58a0.824,0.824,0,0,0,.87.87h50.26a0.824,0.824,0,0,0,.87-0.87v-47.58A3.5,3.5,0,0,0,1125.53,4251Zm-2.6,25.13h-39.86v-1.73h39.86v1.73h0Zm-39.86,1.74h39.86v1.73h-39.86v-1.73Zm40.73-8.67h-41.6v-3.47h41.6v3.47h0Zm-0.87,1.73v1.74h-39.86v-1.74h39.86Zm-39.86,30.34v-19.94h39.86v19.94h-39.86Zm44.2,0h-2.6v-30.34a0.808,0.808,0,0,0,.86-0.86v-5.2a0.816,0.816,0,0,0-.86-0.87h-43.34a0.816,0.816,0,0,0-.86.87v5.2a0.808,0.808,0,0,0,.86.86v30.34h-2.6v-46.72a1.777,1.777,0,0,1,1.82-1.82h44.9a1.777,1.777,0,0,1,1.82,1.82v46.72h0Zm-12.14-46.8h-24.26a0.816,0.816,0,0,0-.87.86v6.07a0.824,0.824,0,0,0,.87.87h24.26a0.824,0.824,0,0,0,.87-0.87v-6.07A0.816,0.816,0,0,0,1115.13,4254.47Zm-0.86,6.06h-22.54v-4.33h22.54v4.33h0Zm0.43,28.52h-1.85l-3.35-4.68a2.774,2.774,0,0,0-2.34-1.22h-3.75a1.091,1.091,0,0,0-.82,0h-3.75a2.774,2.774,0,0,0-2.34,1.22l-3.35,4.68h-1.76a2.243,2.243,0,0,0-2.26,2.25v3.38a2.236,2.236,0,0,0,2.26,2.25h1.32a3.465,3.465,0,0,0,6.71,0h7.16a3.465,3.465,0,0,0,6.71,0h1.32a2.3,2.3,0,0,0,2.34-2.25v-3.38A2.234,2.234,0,0,0,1114.7,4289.05Zm-6.67-3.82,2.71,3.82h-6.87v-4.25h3.2A1.13,1.13,0,0,1,1108.03,4285.23Zm-10.23,0a1.393,1.393,0,0,1,.95-0.43h3.38v4.25h-6.96Zm-1.73,12.57a1.735,1.735,0,1,1,1.73-1.73A1.739,1.739,0,0,1,1096.07,4297.8Zm13.86,0a1.735,1.735,0,1,1,1.74-1.73A1.737,1.737,0,0,1,1109.93,4297.8Zm5.29-3.12a0.559,0.559,0,0,1-.52.52h-1.39a3.333,3.333,0,0,0-3.2-2.6h-0.18a3.474,3.474,0,0,0-3.35,2.6h-7.05a3.533,3.533,0,0,0-3.38-2.6h-0.08a3.486,3.486,0,0,0-3.36,2.6h-1.32a0.559,0.559,0,0,1-.52-0.52v-3.38a0.559,0.559,0,0,1,.52-0.52h1.69a0.934,0.934,0,0,0,.39.09h19.06a0.934,0.934,0,0,0,.39-0.09h1.78a0.559,0.559,0,0,1,.52.52v3.38Z" transform="translate(-1077 -4251)"/>
</svg>
