<svg xmlns="http://www.w3.org/2000/svg" width="54" height="52" viewBox="0 0 54 52">
  <defs>
    <style>
      .cls-1 {
        fill: #fff;
        fill-rule: evenodd;
      }
    </style>
  </defs>
  <path id="Forma_1" data-name="Forma 1" class="cls-1" d="M1111.44,7644.53a1.171,1.171,0,0,0-1.66,0l-15.22,15.27a1.183,1.183,0,0,0,0,1.67,1.183,1.183,0,0,0,1.66,0l15.22-15.27A1.183,1.183,0,0,0,1111.44,7644.53Zm-13.98,7.38a4.47,4.47,0,1,0-4.46-4.47A4.471,4.471,0,0,0,1097.46,7651.91Zm0-6.59a2.115,2.115,0,1,1-2.11,2.12A2.11,2.11,0,0,1,1097.46,7645.32Zm11.08,8.77a4.47,4.47,0,1,0,4.46,4.47A4.471,4.471,0,0,0,1108.54,7654.09Zm0,6.59a2.115,2.115,0,1,1,2.11-2.12A2.11,2.11,0,0,1,1108.54,7660.68Zm19.18-12.65a10,10,0,0,1-1.59-2.57,10.693,10.693,0,0,1-.25-3.16c0.03-1.83.05-3.73-1.04-5.23-1.1-1.52-2.91-2.08-4.67-2.62a6.61,6.61,0,0,1-4.87-3.55c-1.01-1.45-2.15-3.09-3.96-3.68a4.6,4.6,0,0,0-1.46-.22,11.855,11.855,0,0,0-3.75.85,6.906,6.906,0,0,1-6.26,0,11.855,11.855,0,0,0-3.75-.85,4.712,4.712,0,0,0-1.47.22c-1.8.59-2.94,2.23-3.96,3.68a9.79,9.79,0,0,1-1.98,2.35,10.107,10.107,0,0,1-2.88,1.2c-1.76.54-3.57,1.1-4.67,2.62-1.09,1.5-1.07,3.4-1.04,5.23a10.693,10.693,0,0,1-.25,3.16,10.282,10.282,0,0,1-1.59,2.57c-1.07,1.42-2.28,3.03-2.28,4.97s1.21,3.55,2.28,4.97a10.282,10.282,0,0,1,1.59,2.57,10.693,10.693,0,0,1,.25,3.16c-0.03,1.83-.05,3.73,1.04,5.23,1.1,1.52,2.91,2.08,4.67,2.62a10.4,10.4,0,0,1,2.88,1.19,10.059,10.059,0,0,1,1.98,2.36c1.02,1.45,2.16,3.09,3.96,3.68a5.024,5.024,0,0,0,1.47.22,11.855,11.855,0,0,0,3.75-.85,6.906,6.906,0,0,1,6.26,0,11.855,11.855,0,0,0,3.75.85,5.024,5.024,0,0,0,1.47-.22c1.8-.59,2.94-2.23,3.96-3.68a10.059,10.059,0,0,1,1.98-2.36,10.4,10.4,0,0,1,2.88-1.19c1.76-.54,3.57-1.1,4.67-2.62,1.09-1.5,1.07-3.4,1.04-5.23a10.693,10.693,0,0,1,.25-3.16,10.282,10.282,0,0,1,1.59-2.57c1.07-1.42,2.28-3.03,2.28-4.97S1128.79,7649.45,1127.72,7648.03Zm-1.87,8.52a11.527,11.527,0,0,0-1.95,3.27,12.445,12.445,0,0,0-.37,3.91c0.03,1.51.04,2.94-.58,3.81-0.65.89-2.02,1.31-3.47,1.76a8.718,8.718,0,0,0-6.1,4.45c-0.88,1.25-1.7,2.44-2.76,2.79a2.454,2.454,0,0,1-.74.1,10.16,10.16,0,0,1-2.99-.72,9.132,9.132,0,0,0-7.78,0,10.16,10.16,0,0,1-2.99.72,2.454,2.454,0,0,1-.74-0.1c-1.06-.35-1.88-1.54-2.76-2.79a8.718,8.718,0,0,0-6.1-4.45c-1.45-.45-2.83-0.87-3.47-1.76-0.63-.87-0.61-2.3-0.59-3.81a12.155,12.155,0,0,0-.36-3.91,11.527,11.527,0,0,0-1.95-3.27c-0.92-1.24-1.8-2.4-1.8-3.55s0.88-2.32,1.8-3.55a11.527,11.527,0,0,0,1.95-3.27,12.182,12.182,0,0,0,.36-3.91c-0.02-1.52-.04-2.94.59-3.81,0.65-.89,2.02-1.31,3.47-1.76a11.849,11.849,0,0,0,3.57-1.54,12.028,12.028,0,0,0,2.53-2.91c0.88-1.25,1.7-2.44,2.76-2.79a2.454,2.454,0,0,1,.74-0.1,10.16,10.16,0,0,1,2.99.72,9.132,9.132,0,0,0,7.78,0,10.16,10.16,0,0,1,2.99-.72,2.454,2.454,0,0,1,.74.1c1.06,0.35,1.88,1.54,2.76,2.79a12.028,12.028,0,0,0,2.53,2.91,11.849,11.849,0,0,0,3.57,1.54c1.45,0.45,2.82.87,3.47,1.76,0.62,0.87.61,2.3,0.58,3.81a12.474,12.474,0,0,0,.37,3.91,11.527,11.527,0,0,0,1.95,3.27c0.92,1.23,1.8,2.4,1.8,3.55S1126.77,7655.31,1125.85,7656.55Zm-4.62-9.49a7.9,7.9,0,0,1-.18-2.37,5.21,5.21,0,0,0-4.62-6.36,4.842,4.842,0,0,1-3.65-2.66,6.89,6.89,0,0,0-3.21-2.96,4.045,4.045,0,0,0-1.22-.18,9.461,9.461,0,0,0-3,.67,5.129,5.129,0,0,1-4.7,0,9.461,9.461,0,0,0-3-.67,4.045,4.045,0,0,0-1.22.18,6.89,6.89,0,0,0-3.21,2.96,7.849,7.849,0,0,1-1.48,1.77,8.015,8.015,0,0,1-2.17.89,5.21,5.21,0,0,0-4.62,6.36,4.885,4.885,0,0,1-1.37,4.29,5.33,5.33,0,0,0,0,8.04,4.885,4.885,0,0,1,1.37,4.29,5.21,5.21,0,0,0,4.62,6.36,8.015,8.015,0,0,1,2.17.89,7.631,7.631,0,0,1,1.48,1.77,6.89,6.89,0,0,0,3.21,2.96,4.045,4.045,0,0,0,1.22.18,9.461,9.461,0,0,0,3-.67,5.129,5.129,0,0,1,4.7,0,9.461,9.461,0,0,0,3,.67,4.045,4.045,0,0,0,1.22-.18,6.89,6.89,0,0,0,3.21-2.96,7.631,7.631,0,0,1,1.48-1.77,7.882,7.882,0,0,1,2.17-.89,5.21,5.21,0,0,0,4.62-6.36,4.885,4.885,0,0,1,1.37-4.29,5.33,5.33,0,0,0,0-8.04A7.927,7.927,0,0,1,1121.23,7647.06Zm-0.68,8.54a9.158,9.158,0,0,0-1.55,2.62,9.632,9.632,0,0,0-.3,3.12,3.068,3.068,0,0,1-2.96,4.08,9.455,9.455,0,0,0-2.86,1.23,9.223,9.223,0,0,0-2.02,2.33,5.108,5.108,0,0,1-2.02,2.06,1.487,1.487,0,0,1-.49.07,7.822,7.822,0,0,1-2.25-.54,9.645,9.645,0,0,0-3.1-.7,9.764,9.764,0,0,0-3.11.7,7.69,7.69,0,0,1-2.24.54,1.487,1.487,0,0,1-.49-0.07,5.108,5.108,0,0,1-2.02-2.06,9.223,9.223,0,0,0-2.02-2.33,9.455,9.455,0,0,0-2.86-1.23,3.068,3.068,0,0,1-2.96-4.08,9.632,9.632,0,0,0-.3-3.12,9.158,9.158,0,0,0-1.55-2.62,3.179,3.179,0,0,1,0-5.2,9.158,9.158,0,0,0,1.55-2.62,9.632,9.632,0,0,0,.3-3.12,3.068,3.068,0,0,1,2.96-4.08,9.455,9.455,0,0,0,2.86-1.23,9.223,9.223,0,0,0,2.02-2.33,5.209,5.209,0,0,1,2.02-2.07,1.808,1.808,0,0,1,.49-0.07,7.873,7.873,0,0,1,2.25.55,9.632,9.632,0,0,0,3.1.69,9.751,9.751,0,0,0,3.11-.69,7.74,7.74,0,0,1,2.24-.55,1.808,1.808,0,0,1,.49.07,5.209,5.209,0,0,1,2.02,2.07,9.223,9.223,0,0,0,2.02,2.33,9.455,9.455,0,0,0,2.86,1.23,3.068,3.068,0,0,1,2.96,4.08,9.632,9.632,0,0,0,.3,3.12,9.158,9.158,0,0,0,1.55,2.62A3.179,3.179,0,0,1,1120.55,7655.6Z" transform="translate(-1076 -7627)"/>
</svg>
