<svg xmlns="http://www.w3.org/2000/svg" width="65" height="52" viewBox="0 0 65 52">
  <defs>
    <style>
      .cls-1 {
        fill: #fff;
        fill-rule: evenodd;
      }
    </style>
  </defs>
  <path class="cls-1" d="M563.947,4300.92h-1.193V4267.5h0.07a1.04,1.04,0,1,0,0-2.08h-6.307l2.356-1.4a1.024,1.024,0,0,0,.361-1.42,1.068,1.068,0,0,0-1.444-.36l-5.366,3.18h-3.768l2.356-1.4a1.025,1.025,0,0,0,.361-1.42,1.069,1.069,0,0,0-1.445-.36l-5.365,3.18h-3.769l2.356-1.4a1.025,1.025,0,0,0,.361-1.42,1.069,1.069,0,0,0-1.445-.36l-5.365,3.18h-3.769l2.356-1.4a1.024,1.024,0,0,0,.361-1.42,1.069,1.069,0,0,0-1.445-.36l-5.365,3.18h-4.2a1.04,1.04,0,1,0,0,2.08h0.07v6.8h-4.681l-1.076-22.31a1.05,1.05,0,0,0-1.051-.99h-6.739a1.051,1.051,0,0,0-1.052.99l-1.075,22.31h-6.858a1.04,1.04,0,1,0,0,2.08h0.07v24.54h-1.193a1.04,1.04,0,1,0,0,2.08h62.894A1.04,1.04,0,1,0,563.947,4300.92Zm-14.671-4.44v-4.57h4.633v4.57h-4.633Zm-6.738,0v-4.57h4.633v4.57h-4.633Zm11.371-24.54v4.57h-4.633v-4.57h4.633Zm6.739,0v4.57h-4.633v-4.57h4.633Zm-6.739,11.23h-4.633v-4.58h4.633v4.58Zm2.106-4.58h4.633v4.58h-4.633v-4.58Zm-8.844,4.58h-4.633v-4.58h4.633v4.58Zm-4.633,2.08h4.633v4.58h-4.633v-4.58Zm6.738,0h4.633v4.58h-4.633v-4.58Zm6.739,0h4.633v4.58h-4.633v-4.58Zm-8.844-8.74h-4.633v-4.57h4.633v4.57Zm8.844,15.4h4.633v4.57h-4.633v-4.57Zm4.633-24.41v2.36H541.485a1.043,1.043,0,0,0-1.053,1.04v26.62a1.043,1.043,0,0,0,1.053,1.04h19.163v2.36H526.814V4267.5h33.834Zm-48.7-9.98h5.159l0.113,2.35h-5.386Zm4.945-4.44,0.113,2.36h-4.958l0.114-2.36H516.9Zm-5.159,8.87h5.586l0.6,12.35h-6.776Zm-7.385,14.43h20.356v24.54H521.2v-11.23h0.07a1.04,1.04,0,1,0,0-2.08H507.792a1.04,1.04,0,1,0,0,2.08h0.07v11.23h-3.51v-24.54Zm14.741,13.31v2.35h-9.126v-2.35h9.126Zm-9.126,4.44h9.126v2.35h-9.126v-2.35Zm0,4.43h9.126v2.36h-9.126v-2.36Zm-2.175-13.31h4.492a1.04,1.04,0,1,0,0-2.08h-4.492A1.04,1.04,0,1,0,507.792,4285.25Zm8.984,0h4.493a1.04,1.04,0,1,0,0-2.08h-4.493A1.04,1.04,0,1,0,516.776,4285.25Zm-8.984-4.44h4.492a1.04,1.04,0,1,0,0-2.08h-4.492A1.04,1.04,0,1,0,507.792,4280.81Zm8.984,0h4.493a1.04,1.04,0,1,0,0-2.08h-4.493A1.04,1.04,0,1,0,516.776,4280.81Z" transform="translate(-500 -4251)"/>
</svg>
