<svg xmlns="http://www.w3.org/2000/svg" width="33" height="28" viewBox="0 0 33 28">
  <defs>
    <style>
      .cls-1 {
        fill: #fff;
        fill-rule: evenodd;
      }
    </style>
  </defs>
  <path id="Forma_1" data-name="Forma 1" class="cls-1" d="M1021.5,1420.52H1010a1.116,1.116,0,1,0,0,2.23h11.5A1.116,1.116,0,1,0,1021.5,1420.52Zm0,3.68H1010a1.116,1.116,0,1,0,0,2.23h11.5A1.116,1.116,0,1,0,1021.5,1424.2Zm0,3.68H1010a1.116,1.116,0,1,0,0,2.23h11.5A1.116,1.116,0,1,0,1021.5,1427.88Zm13.59-12.88H1007.9a2.848,2.848,0,0,0-2.9,2.79v18.74a2.848,2.848,0,0,0,2.9,2.79h17.23v2.56a1.128,1.128,0,0,0,.61.99,1.223,1.223,0,0,0,1.2-.06l2.23-1.43,2.23,1.43a1.141,1.141,0,0,0,.64.19,1.172,1.172,0,0,0,.55-0.13,1.119,1.119,0,0,0,.62-0.99v-2.56h1.88a2.851,2.851,0,0,0,2.91-2.79v-18.74A2.851,2.851,0,0,0,1035.09,1415Zm-5.92,18.81a2.972,2.972,0,1,1,3.08-2.97A3.027,3.027,0,0,1,1029.17,1433.81Zm0.64,5.3a1.215,1.215,0,0,0-.64-0.18,1.249,1.249,0,0,0-.65.18l-1.06.69v-4.03a5.55,5.55,0,0,0,3.42,0v4.03Zm5.87-2.58a0.586,0.586,0,0,1-.59.56h-1.88v-2.8a5.065,5.065,0,0,0,1.36-3.45,5.4,5.4,0,0,0-10.8,0,5.065,5.065,0,0,0,1.36,3.45v2.8H1007.9a0.583,0.583,0,0,1-.58-0.56v-18.74a0.583,0.583,0,0,1,.58-0.56h27.19a0.586,0.586,0,0,1,.59.56v18.74h0Z" transform="translate(-1005 -1415)"/>
</svg>
