<svg xmlns="http://www.w3.org/2000/svg" width="54" height="52" viewBox="0 0 54 52">
  <defs>
    <style>
      .cls-1 {
        fill: #fff;
        fill-rule: evenodd;
      }
    </style>
  </defs>
  <path id="Forma_1" data-name="Forma 1" class="cls-1" d="M552.9,7377.12l-5.087,7.34-3.59-2.96a0.911,0.911,0,0,0-1.153,1.41l4.351,3.58a0.88,0.88,0,0,0,.576.21,0.532,0.532,0,0,0,.125-0.01,0.889,0.889,0,0,0,.622-0.38l5.649-8.14a0.912,0.912,0,0,0-.228-1.27A0.9,0.9,0,0,0,552.9,7377.12Zm-1.367-6.35,5.75-5.75v-12.9L547.173,7342H534.442l-0.69.69-22.3,22.31,0.007,0.01-5.461,5.46,22.86,23,8-8.01A11.82,11.82,0,1,0,551.528,7370.77Zm-5.106-26.95,9.038,9.05v11.39l-6.082,6.08a2.26,2.26,0,0,0-.26-0.01,1.4,1.4,0,0,0-.2-0.02c-0.052,0-.107-0.01-0.158-0.01-0.2-.01-0.385-0.02-0.571-0.02a11.853,11.853,0,0,0-11.818,11.86c0,0.18.006,0.36,0.016,0.56,0,0.06.012,0.13,0.017,0.2s0.009,0.12.014,0.18,0,0.14.011,0.21l-2.116,2.12-20.285-20.4,21.168-21.19h11.228Zm-37.858,26.66,4.175-4.18,20.291,20.41-4.174,4.18Zm39.623,21.69a10.018,10.018,0,0,1-9.893-8.64l0-.02c-0.02-.15-0.03-0.28-0.045-0.41-0.007-.07-0.016-0.14-0.022-0.2-0.019-.25-0.038-0.5-0.038-0.76a10.036,10.036,0,0,1,10-10.04c0.256,0,.506.02,0.757,0.04,0.04,0.01.086,0.01,0.127,0.02,0.163,0.01.323,0.03,0.5,0.05l0.023,0.01A10.027,10.027,0,0,1,548.187,7392.17Zm-3.623-34.78a3.59,3.59,0,1,0-3.578-3.59A3.588,3.588,0,0,0,544.564,7357.39Zm0-5.36a1.77,1.77,0,1,1-1.76,1.77A1.77,1.77,0,0,1,544.564,7352.03Z" transform="translate(-506 -7342)"/>
</svg>
