<svg xmlns="http://www.w3.org/2000/svg" width="52" height="52" viewBox="0 0 52 52">
  <defs>
    <style>
      .cls-1 {
        fill: #fff;
        fill-rule: evenodd;
      }
    </style>
  </defs>
  <path id="Forma_1" data-name="Forma 1" class="cls-1" d="M1409.67,4256.71v-3.2a2.518,2.518,0,0,0-2.51-2.51h-38.32a2.518,2.518,0,0,0-2.51,2.51v3.2l-4.33,4.33v5.13c0,0.14.01,0.29,0.02,0.43H1362V4303h5.2v-2.6h41.6v2.6h5.2v-36.4h-0.02c0.01-.14.02-0.29,0.02-0.43v-5.13Zm-1.3,14.22h0.43v17.34h-4.82a3.42,3.42,0,0,0-2.62-5.17,3.356,3.356,0,0,0,.51-1.77,3.47,3.47,0,0,0-6.94,0,3.356,3.356,0,0,0,.51,1.77,3.42,3.42,0,0,0-2.62,5.17h-13.49v-2.6h3.47a0.87,0.87,0,1,0,0-1.74h-3.97l6.06-6.06-1.59-1.59a9.289,9.289,0,0,0-13.14,0l-1.59,1.59,6.07,6.06h-3.97a0.87,0.87,0,0,0,0,1.74h3.46v2.6h-6.93v-17.34h0.43a4.761,4.761,0,0,1,7.8,0h0.87a4.761,4.761,0,0,1,7.8,0,4.761,4.761,0,0,1,7.8,0,4.761,4.761,0,0,1,7.8,0h0.87A4.761,4.761,0,0,1,1408.37,4270.93Zm-40.3,19.07h1.73v8.67h-1.73V4290Zm3.46,0h1.74v8.67h-1.74V4290Zm4.34-4.33h0.51l0.35,0.35,0.36-.35h0.51v2.6h-1.73v-2.6Zm0.86-8.67a0.862,0.862,0,0,0-.86.87v4.84l-4.84-4.84,0.36-.37a7.581,7.581,0,0,1,10.69,0l0.36,0.37-4.84,4.84v-4.84A0.871,0.871,0,0,0,1376.73,4277Zm-1.73,13h1.73v8.67H1375V4290Zm3.47,0h1.73v8.67h-1.73V4290Zm3.46,0h1.74v8.67h-1.74V4290Zm3.47,0h1.73v8.67h-1.73V4290Zm3.47,0h1.73v8.67h-1.73V4290Zm3.46,0h1.74v8.67h-1.74V4290Zm8.67-1.73a1.735,1.735,0,1,1,1.73-1.74A1.733,1.733,0,0,1,1401,4288.27Zm-2.6-5.2a1.735,1.735,0,1,1,1.73-1.74A1.733,1.733,0,0,1,1398.4,4283.07Zm-0.87,3.46a1.73,1.73,0,1,1-1.73-1.73A1.733,1.733,0,0,1,1397.53,4286.53Zm-1.73,3.47h1.73v8.67h-1.73V4290Zm3.47,0H1401v8.67h-1.73V4290Zm3.46,0h1.74v8.67h-1.74V4290Zm3.47,0h1.73v8.67h-1.73V4290Zm-31.2-37.27h5.2v4.25l-0.85,4.25-0.01,2.77h-6.94v-2.36l2.6-4.33v-4.58Zm19.93,8.76V4264h-6.06v-11.27h5.2v4.34Zm8.67,4.68a3.034,3.034,0,0,1-3.03,3.03h-0.87a3.034,3.034,0,0,1-3.03-3.03v-0.44h6.93v0.44Zm-8.67,0a3.03,3.03,0,1,1-6.06,0v-0.44h6.06v0.44Zm-7.8,0a3.03,3.03,0,0,1-6.06,0v-0.44h6.06v0.44Zm0-2.17h-6.06v-2.51l0.85-4.25,0.01-4.51h5.2V4264Zm-14.73,1.73h6.93v0.44a3.034,3.034,0,0,1-3.03,3.03h-0.87a3.034,3.034,0,0,1-3.03-3.03v-0.44Zm31.2-1.73h-6.93v-2.6l-0.87-4.42v-4.25h5.2v4.58l2.6,4.33V4264Zm-39.87-2.24,4.34-4.34v-3.91a0.779,0.779,0,0,1,.77-0.78h4.43v4.1l-2.6,4.33V4264h-6.94v-2.24Zm6.94,3.97v0.44a3.037,3.037,0,0,1-3.04,3.03h-0.85l-0.35-.04a2.969,2.969,0,0,1-1.53-.62l-0.03-.03a2.975,2.975,0,0,1-.78-0.94h0c-0.06-.13-0.12-0.26-0.17-0.39l-0.02-.07a2.951,2.951,0,0,1-.17-0.94v-0.44h6.94Zm-6.94,4.11a4.833,4.833,0,0,0,1.74.91v17.52h-1.74v-18.43Zm0,20.16h2.6v8.67h-2.6V4290Zm1.74,11.27h-1.74v-0.87h1.74v0.87Zm46.8,0h-1.74v-0.87h1.74v0.87Zm0-2.6h-2.6V4290h2.6v8.67Zm-1.74-10.4v-17.52a4.833,4.833,0,0,0,1.74-.91v18.43h-1.74Zm1.74-22.1a2.951,2.951,0,0,1-.17.94l-0.02.07c-0.05.13-.11,0.26-0.17,0.39h-0.01a2.82,2.82,0,0,1-.77.94l-0.03.03a2.969,2.969,0,0,1-1.53.62l-0.35.04h-0.85a3.037,3.037,0,0,1-3.04-3.03v-0.44h6.94v0.44Zm-6.94-2.17v-2.84l-2.6-4.33v-4.1h4.43a0.779,0.779,0,0,1,.77.78v3.91l4.34,4.34V4264h-6.94Z" transform="translate(-1362 -4251)"/>
</svg>
