<svg xmlns="http://www.w3.org/2000/svg" width="79" height="52" viewBox="0 0 79 52">
  <defs>
    <style>
      .cls-1 {
        fill: #fff;
        fill-rule: evenodd;
      }
    </style>
  </defs>
  <path id="Forma_1" data-name="Forma 1" class="cls-1" d="M1140.72,4585.42h-11.01v-8.48a10.892,10.892,0,0,0,9.56-10.82c0-9.69-9.29-28.61-9.69-29.41a1.278,1.278,0,0,0-2.29,0c-0.02.05-2.44,4.95-4.82,10.95a90.718,90.718,0,0,0-4.03,12.27l-15.31-8.66a1.285,1.285,0,0,0-1.26,0l-9.01,5.1v-1.32h0.08a1.29,1.29,0,0,0,0-2.58h-8.19a1.29,1.29,0,0,0,0,2.58h0.09v5.85l-1.28.73c-0.27-1.14-.59-2.31-0.95-3.45-1.76-5.69-3.74-8.45-6.05-8.45s-4.28,2.76-6.04,8.45a45.125,45.125,0,0,0-2.06,10.34c0,3.55,2.96,6.49,6.83,7.03v9.87h-11.01a1.29,1.29,0,0,0,0,2.58h76.44A1.29,1.29,0,0,0,1140.72,4585.42Zm-35.4-8.23h-0.09a1.285,1.285,0,0,0,0,2.57h0.09v5.66h-5.64v-13.9h5.64v5.67Zm2.55-6.95a1.285,1.285,0,0,0-1.28-1.29h-8.19a1.283,1.283,0,0,0-1.27,1.29v15.18H1083.3v-12.95a6.583,6.583,0,0,0,1.29-2.98l17.91-10.13,15.26,8.63c0.07,0.36.15,0.71,0.24,1.06a1.131,1.131,0,0,0-.49-0.1h-5.46a1.283,1.283,0,0,0-1.27,1.29v9.61a1.274,1.274,0,0,0,1.27,1.28h5.46a1.276,1.276,0,0,0,1.28-1.28v-8.77a10.813,10.813,0,0,0,2.91,3.56v10.78h-13.83v-15.18h0Zm8.37,2.83h-2.91v-1.55h2.91v1.55Zm-2.91,2.57h2.91v2.92h-2.91v-2.92Zm10.92,0.53a10.592,10.592,0,0,0,2.91.77v8.48h-2.91v-9.25Zm4.19-35.89c2.51,5.44,8.27,18.7,8.27,25.84a8.32,8.32,0,0,1-7,8.22v-4.1h0v-3.59l3.72-3.74a1.292,1.292,0,0,0,0-1.82,1.267,1.267,0,0,0-1.8,0l-1.92,1.92v-2.38a1.275,1.275,0,1,0-2.55,0v5.49h0v1.01l-1.92-1.92a1.267,1.267,0,0,0-1.8,0,1.292,1.292,0,0,0,0,1.82l3.72,3.74v3.57a8.32,8.32,0,0,1-7-8.22C1120.16,4558.98,1125.92,4545.72,1128.44,4540.28Zm-41.04,14.77h2.9v2.76l-2.9,1.65v-4.41Zm15.1-1.18,15.42,8.72c-0.14.85-.23,1.64-0.28,2.38l-14.51-8.21a1.285,1.285,0,0,0-1.26,0l-17.36,9.82c-0.09-.69-0.22-1.47-0.38-2.32Zm-31.48,14.65a43.63,43.63,0,0,1,1.94-9.58c1.69-5.44,3.18-6.64,3.6-6.64s1.92,1.2,3.61,6.64a43.63,43.63,0,0,1,1.94,9.58c0,2.15-1.82,3.95-4.27,4.43v-4.09a1.275,1.275,0,1,0-2.55,0v4.09C1072.84,4572.47,1071.02,4570.67,1071.02,4568.52Zm6.82,7.03a8.79,8.79,0,0,0,2.91-.93v10.8h-2.91v-9.87Zm15.1-6.6h-5.46a1.283,1.283,0,0,0-1.27,1.29v9.61a1.274,1.274,0,0,0,1.27,1.28h5.46a1.276,1.276,0,0,0,1.28-1.28v-9.61A1.285,1.285,0,0,0,1092.94,4568.95Zm-1.27,2.57v1.55h-2.91v-1.55h2.91Zm-2.91,7.04v-2.92h2.91v2.92h-2.91Z" transform="translate(-1063 -4536)"/>
</svg>
