<svg xmlns="http://www.w3.org/2000/svg" width="52" height="52" viewBox="0 0 52 52">
  <defs>
    <style>
      .cls-1 {
        fill: #fff;
        fill-rule: evenodd;
      }
    </style>
  </defs>
  <path class="cls-1" d="M838.1,4536v16.08h-4.286v-8.58H817.733v-4.28h-16.62v12.86h-3.75V4536H792v52h5.363v-9.65H838.1V4588H844v-52h-5.9Zm-44.49,50.39v-48.78h2.141v48.78h-2.141Zm24.122-41.28H832.2v6.97H817.733v-6.97Zm-9.649-4.28h2.678v4.82h-2.678v-4.82Zm-5.36,0h3.749v6.43h5.9v-6.43h3.749v11.25h-13.4v-11.25Zm35.377,35.91H797.363v-1.61H838.1v1.61Zm-34.3-3.22v-6.96h14.471v6.96H803.8Zm25.73-4.82v-6.43h3.75v11.25h-13.4v-11.25h3.749v6.43h5.9Zm-4.288-1.61v-4.82h2.678v4.82h-2.678Zm12.863,6.43h-3.214v-12.86h-16.62v4.29H802.185v8.57h-4.822v-16.61H838.1v16.61Zm0-18.22H797.363v-1.61H838.1v1.61Zm4.288,31.09h-2.678v-48.78h2.678v48.78Zm-15.276-38.6h3.216v1.61h-3.216v-1.61Zm-6.433,0h5.361v1.61H820.68v-1.61Zm-7.5,21.45h3.217v1.61h-3.217v-1.61Zm-6.432,0h5.36v1.61h-5.36v-1.61Z" transform="translate(-792 -4536)"/>
</svg>
