<svg xmlns="http://www.w3.org/2000/svg" width="30" height="32" viewBox="0 0 30 32">
  <defs>
    <style>
      .cls-1 {
        fill: #fff;
        fill-rule: evenodd;
      }
    </style>
  </defs>
  <path class="cls-1" d="M1033.62,1757.01h-3.03v-0.34a3.675,3.675,0,0,0-3.71-3.67h-18.17a3.675,3.675,0,0,0-3.71,3.67v3.6a3.681,3.681,0,0,0,3.71,3.67h18.17a3.681,3.681,0,0,0,3.71-3.67v-0.54h1.65v6.31H1017.8a1.379,1.379,0,0,0-1.38,1.36v2.66h-0.82a1.348,1.348,0,0,0-1.34,1.15l-1.18,8.43c-0.4,3.73,1.77,5.36,4.72,5.36,1.97,0,5.28-.75,4.73-5.36l-1.19-8.43a1.34,1.34,0,0,0-1.34-1.15h-0.82v-1.3h14.45a1.377,1.377,0,0,0,1.37-1.36v-9.04A1.383,1.383,0,0,0,1033.62,1757.01Zm-5.71,3.26a1.053,1.053,0,0,1-1.03,1.02h-18.17a1.06,1.06,0,0,1-1.03-1.02v-3.6a1.06,1.06,0,0,1,1.03-1.02h18.17a1.053,1.053,0,0,1,1.03,1.02v3.6h0Zm-10.11,22.05a2.112,2.112,0,0,1-2.05-2.31l1.03-7.28h2.03l1.03,7.28C1019.84,1781.78,1019.12,1782.32,1017.8,1782.32Z" transform="translate(-1005 -1753)"/>
</svg>
