<?xml version="1.0" encoding="utf-8"?>
<!-- Generated by IcoMoon.io -->
<!DOCTYPE svg PUBLIC "-//W3C//DTD SVG 1.1//EN" "http://www.w3.org/Graphics/SVG/1.1/DTD/svg11.dtd">
<svg version="1.1" xmlns="http://www.w3.org/2000/svg" xmlns:xlink="http://www.w3.org/1999/xlink" width="28" height="32" viewBox="0 0 28 32">
<path fill="#17B3AD" d="M25.802 1.62h-1.889v-1.096c0-0.291-0.236-0.526-0.526-0.526s-0.526 0.236-0.526 0.526v1.094h-5.231v-1.094c0-0.291-0.236-0.526-0.526-0.526s-0.526 0.236-0.526 0.526v1.094h-5.229v-1.094c0-0.291-0.236-0.526-0.526-0.526s-0.526 0.236-0.526 0.526v1.094h-5.229v-1.094c0-0.291-0.236-0.526-0.526-0.526s-0.526 0.236-0.526 0.526v1.094h-1.889c-1.173 0.002-2.123 0.953-2.124 2.126v26.132c0.002 1.173 0.953 2.123 2.125 2.124h23.677c1.173-0.001 2.124-0.951 2.125-2.124v-26.132c-0.002-1.173-0.952-2.123-2.125-2.124zM23.387 4.371c0.261 0 0.472 0.212 0.472 0.473s-0.212 0.473-0.473 0.473-0.473-0.212-0.473-0.473c0.001-0.261 0.213-0.473 0.474-0.473 0.001 0 0.001 0 0.002 0zM17.103 4.371c0.261 0 0.472 0.212 0.472 0.473s-0.212 0.473-0.473 0.473-0.473-0.212-0.473-0.473c0.001-0.261 0.213-0.473 0.474-0.473 0.001 0 0.001 0 0.002 0zM10.819 4.371c0.261 0 0.472 0.212 0.472 0.473s-0.212 0.473-0.473 0.473-0.473-0.212-0.473-0.473c0.001-0.261 0.213-0.473 0.474-0.473 0.001 0 0.001 0 0.002 0zM4.536 4.371c0.261 0 0.472 0.212 0.472 0.473s-0.212 0.473-0.473 0.473-0.473-0.212-0.473-0.473c0.001-0.261 0.213-0.473 0.474-0.473 0.001 0 0.001 0 0.002 0zM1.045 3.744c0.001-0.592 0.481-1.072 1.073-1.073h1.896v0.744c-0.589 0.221-1 0.779-1 1.433 0 0.843 0.683 1.526 1.526 1.526s1.526-0.683 1.526-1.526c0-0.654-0.411-1.212-0.989-1.429l-0.011-0.747h5.231v0.744c-0.589 0.221-1 0.779-1 1.433 0 0.843 0.683 1.526 1.526 1.526s1.526-0.683 1.526-1.526c0-0.654-0.411-1.212-0.989-1.429l-0.011-0.747h5.229v0.744c-0.589 0.221-1 0.779-1 1.433 0 0.843 0.683 1.526 1.526 1.526s1.526-0.683 1.526-1.526c0-0.654-0.411-1.212-0.989-1.429l-0.011-0.747h5.229v0.744c-0.589 0.221-1 0.779-1 1.433 0 0.843 0.683 1.526 1.526 1.526s1.526-0.683 1.526-1.526c0-0.654-0.411-1.212-0.989-1.429l-0.011-0.747h1.889c0.592 0.001 1.072 0.481 1.073 1.073v24.054c-0.001 0.592-0.481 1.072-1.073 1.073h-23.678c-0.592-0.001-1.072-0.481-1.073-1.073v-24.054zM25.795 30.949h-23.67c-0.592-0.001-1.072-0.481-1.073-1.073v-0.246c0.306 0.183 0.676 0.291 1.070 0.291 0.001 0 0.002 0 0.003 0h23.676c0.001 0 0.002 0 0.003 0 0.395 0 0.764-0.108 1.080-0.296l-0.010 0.251c-0.001 0.592-0.481 1.072-1.073 1.073z"></path>
<path fill="#17B3AD" d="M14.725 20.387c-0.337 0.245-0.758 0.392-1.215 0.392-0.064 0-0.127-0.003-0.19-0.009-0.019 0.001-0.052 0.001-0.084 0.001-0.453 0-0.893-0.054-1.315-0.155-0.343-0.090-0.544-0.217-0.883-0.292-0.635-0.141-0.833 0.68-0.566 1.203 0.139 0.299 0.37 0.535 0.655 0.679q0.315 0.087 0.699 0.164c0.256 0.051 0.524 0.093 0.796 0.126 0.236 0.030 0.51 0.048 0.787 0.049 0.031 0.001 0.067 0.001 0.102 0.001 0.565 0 1.109-0.087 1.62-0.249 0.423-0.134 0.822-0.358 1.163-0.649 0.3-0.263 0.542-0.593 0.701-0.968 0.157-0.376 0.244-0.793 0.244-1.23 0-0.011-0-0.021-0-0.032 0.002-0.041 0.004-0.092 0.004-0.142 0-0.848-0.376-1.608-0.971-2.122-0.838-0.601-1.879-0.96-3.004-0.96-0.003 0-0.006 0-0.009 0q0.042-0.349 0.077-0.815t0.063-0.97h3.491c1.468 0 1.583-1.745 0-1.745h-5.236q-0.058 1.173-0.154 2.513t-0.251 2.639c0.050-0.001 0.109-0.001 0.168-0.001 0.61 0 1.211 0.041 1.799 0.12 0.377 0.047 0.783 0.16 1.161 0.325 0.234 0.098 0.449 0.279 0.597 0.507 0.118 0.205 0.185 0.444 0.185 0.698 0 0.009-0 0.018-0 0.028-0.005 0.36-0.173 0.681-0.433 0.892z"></path>
</svg>
