<?xml version="1.0" encoding="utf-8"?>
<!-- Generated by IcoMoon.io -->
<!DOCTYPE svg PUBLIC "-//W3C//DTD SVG 1.1//EN" "http://www.w3.org/Graphics/SVG/1.1/DTD/svg11.dtd">
<svg version="1.1" xmlns="http://www.w3.org/2000/svg" xmlns:xlink="http://www.w3.org/1999/xlink" width="29" height="32" viewBox="0 0 29 32">
<path fill="#17B3AD" d="M16.18 32h-1.978c-0.951-0.004-1.72-0.774-1.722-1.725v-0.070c0-0 0-0 0-0.001 0-0.952 0.771-1.723 1.722-1.725h1.977c0.794 0.001 1.462 0.538 1.662 1.268l4.767 0.012c3.127-0.009 5.658-2.545 5.658-5.673 0-0.001 0-0.002 0-0.004v-2.115h-0.359v1.183c0 0 0 0 0 0 0 0.898-0.726 1.625-1.623 1.628h-1.352c-0.205-0-0.379-0.129-0.447-0.31l-0.562-0.003c-0.007 0-0.016 0-0.025 0-0.666 0-1.208-0.533-1.223-1.195l-0-7.612c0.018-0.661 0.559-1.19 1.223-1.19 0.009 0 0.018 0 0.027 0l0.562-0c0.066-0.188 0.242-0.32 0.448-0.32h1.43c0.85 0.004 1.537 0.694 1.537 1.544 0 0 0 0 0 0v1.266h0.359v-1.517c0-7.986-6.125-14.49-13.655-14.49s-13.655 6.504-13.655 14.49v1.517h0.359v-1.266c0-0 0-0 0-0.001 0-0.85 0.687-1.539 1.536-1.544h1.437c0.206 0.001 0.382 0.133 0.447 0.317l0.562 0.003c0.008-0 0.017-0 0.026-0 0.664 0 1.204 0.529 1.222 1.188l0 7.612c-0.015 0.664-0.557 1.197-1.223 1.197-0.009 0-0.017-0-0.026-0l-0.559 0c-0.069 0.184-0.244 0.313-0.448 0.313h-1.349c-0.897-0.002-1.624-0.73-1.624-1.628 0 0 0 0 0 0v-1.183h-0.835c-0.263-0.001-0.477-0.215-0.477-0.479 0-0 0-0.001 0-0.001v-6.045c0-8.515 6.554-15.443 14.609-15.443s14.609 6.929 14.609 15.443v8.64c0 0.001 0 0.003 0 0.005 0 3.654-2.956 6.619-6.607 6.632h-4.764c-0.203 0.742-0.871 1.279-1.665 1.28zM14.202 29.433c-0.425 0.002-0.769 0.347-0.769 0.772 0 0 0 0 0 0v0.070c0 0 0 0 0 0 0 0.423 0.343 0.765 0.765 0.765 0.001 0 0.003 0 0.004 0h1.977c0.001 0 0.003 0 0.004 0 0.423 0 0.765-0.343 0.765-0.765 0 0 0 0 0 0v-0.070c0 0 0 0 0 0 0-0.425-0.344-0.771-0.769-0.772h-1.977zM25.466 23.819h0.815c0 0 0 0 0.001 0 0.369 0 0.668-0.299 0.669-0.668v-7.457c-0-0.322-0.261-0.583-0.583-0.584h-0.904v8.71zM2.852 15.11c-0.322 0.002-0.582 0.262-0.583 0.584v7.457c0.001 0.369 0.301 0.668 0.67 0.668 0 0 0.001 0 0.001 0h0.872v-8.71h-0.959zM23.927 15.423c-0.006-0-0.013-0.001-0.020-0.001-0.139 0-0.255 0.102-0.275 0.236l-0 7.612c0.017 0.135 0.131 0.238 0.269 0.238 0.009 0 0.018-0 0.027-0.001l0.588 0v-8.083h-0.593zM4.765 23.506h0.532c0.008 0.001 0.017 0.001 0.026 0.001 0.138 0 0.252-0.103 0.269-0.236l0-7.612c-0.021-0.135-0.136-0.237-0.275-0.237-0.007 0-0.014 0-0.021 0.001l-0.531-0v8.083zM27.908 21.016h0.359v-3.096h-0.359v3.096zM0.957 21.016h0.359v-3.096h-0.359v3.096z"></path>
</svg>
