<?xml version="1.0" encoding="utf-8"?>
<!-- Generated by IcoMoon.io -->
<!DOCTYPE svg PUBLIC "-//W3C//DTD SVG 1.1//EN" "http://www.w3.org/Graphics/SVG/1.1/DTD/svg11.dtd">
<svg version="1.1" xmlns="http://www.w3.org/2000/svg" xmlns:xlink="http://www.w3.org/1999/xlink" width="32" height="32" viewBox="0 0 32 32">
<path fill="#17B3AD" d="M22.86 0c-0.003 0-0.006 0-0.010 0-5.045 0-9.135 4.090-9.135 9.135 0 1.896 0.578 3.657 1.566 5.117l-15.113 15.059c-0.102 0.104-0.166 0.247-0.166 0.404s0.063 0.3 0.166 0.404c0.103 0.103 0.246 0.167 0.404 0.167s0.301-0.064 0.404-0.167l2.449-2.453 4.172 4.168c0.102 0.103 0.244 0.167 0.401 0.168 0.159-0.001 0.302-0.065 0.407-0.168 0.102-0.104 0.166-0.247 0.166-0.404s-0.063-0.3-0.166-0.404l-4.172-4.167 2.054-2.049 3.020 3.025c0.105 0.103 0.248 0.167 0.407 0.168 0.315-0.002 0.569-0.257 0.569-0.572 0-0.158-0.064-0.3-0.167-0.404l-3.025-3.025 2.054-2.049 4.166 4.167c0.102 0.103 0.244 0.168 0.401 0.168 0 0 0 0 0.001 0s0.002 0 0.003 0c0.316 0 0.571-0.256 0.571-0.571 0-0.158-0.064-0.3-0.167-0.404l-4.172-4.168 6.016-6.012c1.684 1.927 4.146 3.138 6.891 3.138 5.045 0 9.135-4.090 9.135-9.135 0-5.044-4.088-9.133-9.131-9.135zM22.86 17.143c-4.418 0-8-3.582-8-8s3.582-8 8-8c4.418 0 8 3.582 8 8-0.006 4.416-3.584 7.994-7.999 8z"></path>
</svg>
