<svg xmlns="http://www.w3.org/2000/svg" width="7" height="9" viewBox="0 0 7 9">
  <defs>
    <style>
      .cls-1 {
        fill: #fff;
        fill-rule: evenodd;
      }
    </style>
  </defs>
  <path id="Forma_1" data-name="Forma 1" class="cls-1" d="M1233.83,8327.27a0.539,0.539,0,0,0-.41-0.18h-0.2v-1.23a2.867,2.867,0,0,0-.8-2.02,2.614,2.614,0,0,0-3.84,0,2.867,2.867,0,0,0-.8,2.02v1.23h-0.2a0.539,0.539,0,0,0-.41.18,0.613,0.613,0,0,0-.17.43v3.69a0.613,0.613,0,0,0,.17.43,0.539,0.539,0,0,0,.41.18h5.84a0.539,0.539,0,0,0,.41-0.18,0.613,0.613,0,0,0,.17-0.43v-3.69A0.613,0.613,0,0,0,1233.83,8327.27Zm-1.77-.18h-3.12v-1.23a1.609,1.609,0,0,1,.46-1.15,1.5,1.5,0,0,1,2.2,0,1.609,1.609,0,0,1,.46,1.15v1.23Z" transform="translate(-1227 -8323)"/>
</svg>
