<?xml version="1.0" encoding="utf-8"?>
<!-- Generated by IcoMoon.io -->
<!DOCTYPE svg PUBLIC "-//W3C//DTD SVG 1.1//EN" "http://www.w3.org/Graphics/SVG/1.1/DTD/svg11.dtd">
<svg version="1.1" xmlns="http://www.w3.org/2000/svg" xmlns:xlink="http://www.w3.org/1999/xlink" width="26" height="32" viewBox="0 0 26 32">
<path fill="#17B3AD" d="M21.971 24.762c0.521-0.199 0.968-0.478 1.351-0.827l0.143-0.142v-0.205c0-2.901-1.234-11.385-1.577-13.689h2.306v-0.496c0-0.643-0.566-3.135-1.823-3.135h-0.959c-0.867-2.476-2.737-4.408-5.11-5.34l-0.060-0.927h-6.299v0.906c-2.433 0.953-4.304 2.885-5.153 5.299l-0.978 0.062c-1.258 0-1.823 2.492-1.823 3.135v0.496h2.232c-0.356 2.195-1.571 9.957-1.571 13.689v0.205l0.145 0.145c0.393 0.358 0.859 0.645 1.371 0.835-4.069 2.13-4.166 4.955-4.168 5.071v2.156h26.182v-2.148c0.002-0.121-0.061-2.972-4.208-5.090zM3.977 31.011h-2.981v-1.145c0.006-0.137 0.145-2.095 2.981-3.82v4.965zM22.466 23.362c-0.566 0.428-1.275 0.694-2.045 0.718-0.243-0.092-0.506-0.183-0.84-0.291-0.051-0.027-0.151-0.080-0.285-0.154-0.91-0.471-1.695-0.993-2.416-1.589l0.023-1.583c1.207-0.704 2.177-1.695 2.836-2.883 0.726-1.318 1.141-2.844 1.141-4.467 0-0.029-0-0.059-0-0.088l0-3.129c0.298 1.978 1.525 10.39 1.587 13.462zM6.298 9.9h13.586v3.133c0 2.957-1.421 5.524-3.709 6.699-0.899 0.456-1.96 0.722-3.084 0.722s-2.185-0.267-3.123-0.741c-1.115-0.594-2.041-1.506-2.654-2.615-0.645-1.175-1.014-2.535-1.014-3.981 0-0.030 0-0.060 0-0.090l-0-3.129zM10.275 20.938c0.837 0.321 1.805 0.508 2.816 0.508s1.979-0.186 2.871-0.526l-0.055 1.159c-0.669 0.823-1.682 1.345-2.816 1.345s-2.147-0.522-2.811-1.339l-0.005-1.146zM13.091 24.415c1.303-0.056 2.47-0.599 3.331-1.45 0.622 0.488 1.32 0.951 2.055 1.356l0.081 4.051h-10.936v-4.010c0.816-0.446 1.514-0.909 2.171-1.422 0.827 0.876 1.995 1.418 3.288 1.473zM18.56 3.561c0.76 0.749 1.367 1.651 1.771 2.656l-1.771 0.053v-2.709zM16.24 1.982c0.508 0.226 0.942 0.476 1.348 0.764l-0.024 3.524h-1.324v-4.292zM10.938 0.993h4.305v5.277h-4.305v-5.281zM8.618 2.73c0.382-0.271 0.817-0.521 1.275-0.728l0.049 4.268h-1.324v-3.54zM7.622 3.555v2.712h-1.793c0.422-1.060 1.030-1.963 1.792-2.711zM3.044 8.908c0.151-0.71 0.55-1.561 0.778-1.648h18.536c0.228 0.087 0.627 0.938 0.778 1.648h-20.092zM3.647 23.361c0.049-3.798 1.276-11.585 1.581-13.462h0.073v3.134c-0 0.025-0 0.054-0 0.083 0 1.623 0.415 3.148 1.146 4.476 0.655 1.178 1.625 2.169 2.796 2.854l0.036 1.62c-0.698 0.578-1.482 1.099-2.318 1.536-0.21 0.11-0.307 0.163-0.361 0.19-0.311 0.1-0.595 0.203-0.83 0.291-0.801-0.010-1.538-0.28-2.13-0.73zM4.972 25.502c0.317-0.155 0.651-0.301 1.012-0.442 0.178-0.067 0.399-0.15 0.643-0.233v3.545h-1.656v-2.868zM21.209 31.010h-16.237v-1.648h16.237v1.649zM21.209 28.371h-1.656v-3.549c0.226 0.076 0.416 0.145 0.59 0.214l0.013 0.005c0.434 0.158 0.781 0.308 1.119 0.475l-0.066 2.853zM25.186 31.010h-2.981v-4.985c2.878 1.736 2.978 3.72 2.981 3.835v1.151zM13.091 16.825h1.325v-0.989h-0.827v-2.146h-0.996v2.64c0.001 0.274 0.223 0.495 0.496 0.495 0.001 0 0.001 0 0.002 0z"></path>
</svg>
