<?xml version="1.0" encoding="utf-8"?>
<!-- Generated by IcoMoon.io -->
<!DOCTYPE svg PUBLIC "-//W3C//DTD SVG 1.1//EN" "http://www.w3.org/Graphics/SVG/1.1/DTD/svg11.dtd">
<svg version="1.1" xmlns="http://www.w3.org/2000/svg" xmlns:xlink="http://www.w3.org/1999/xlink" width="33" height="32" viewBox="0 0 33 32">
<path fill="#17B3AD" d="M21.913 10.79c-0.131-0.132-0.313-0.214-0.513-0.214s-0.382 0.082-0.513 0.214l-9.408 9.398c-0.131 0.131-0.213 0.311-0.213 0.511s0.081 0.381 0.213 0.511c0.13 0.133 0.312 0.216 0.513 0.216s0.383-0.083 0.513-0.216l9.41-9.398c0.131-0.131 0.212-0.311 0.212-0.511s-0.082-0.381-0.213-0.512zM13.267 15.325c1.518-0.002 2.749-1.233 2.749-2.751s-1.232-2.751-2.751-2.751-2.751 1.232-2.751 2.751c0 0.001 0 0.002 0 0.004 0.003 1.518 1.235 2.748 2.753 2.748 0.001 0 0.001 0 0.001 0zM13.267 11.277c0.718 0.001 1.299 0.583 1.299 1.301s-0.582 1.301-1.301 1.301-1.301-0.582-1.301-1.301c0.002-0.719 0.584-1.3 1.303-1.301zM20.122 16.675c-1.518 0.002-2.748 1.233-2.748 2.751 0 1.52 1.232 2.751 2.751 2.751s2.751-1.232 2.751-2.751c0-0.001 0-0.002 0-0.004-0.003-1.518-1.235-2.748-2.753-2.748-0 0-0 0-0.001 0zM20.122 20.723c-0.718-0.001-1.299-0.583-1.299-1.301s0.582-1.301 1.301-1.301 1.301 0.582 1.301 1.301c-0.002 0.718-0.584 1.3-1.302 1.301zM31.981 12.939c-0.39-0.453-0.719-0.974-0.966-1.539-0.125-0.482-0.187-0.989-0.187-1.511 0-0.165 0.006-0.329 0.019-0.491 0.014-1.112 0.030-2.274-0.643-3.199s-1.802-1.28-2.888-1.614c-0.675-0.165-1.269-0.418-1.808-0.753-0.452-0.397-0.86-0.874-1.188-1.406-0.641-0.917-1.349-1.925-2.464-2.287-0.268-0.088-0.577-0.139-0.897-0.139-0.003 0-0.005 0-0.008 0-0.846 0.052-1.636 0.239-2.366 0.54-0.515 0.271-1.181 0.441-1.887 0.441s-1.372-0.17-1.96-0.47c-0.657-0.271-1.446-0.458-2.271-0.509-0.023-0.001-0.026-0.001-0.028-0.001-0.32 0-0.629 0.051-0.918 0.145-1.092 0.356-1.803 1.365-2.428 2.255-0.343 0.558-0.751 1.035-1.222 1.44-0.52 0.326-1.114 0.579-1.747 0.735-1.127 0.343-2.25 0.691-2.93 1.623s-0.658 2.087-0.642 3.221c0.011 0.14 0.017 0.303 0.017 0.467 0 0.523-0.063 1.031-0.181 1.517-0.253 0.561-0.583 1.082-0.979 1.544-0.653 0.868-1.403 1.863-1.403 3.053s0.749 2.184 1.409 3.061c0.39 0.453 0.719 0.974 0.967 1.539 0.125 0.482 0.187 0.989 0.187 1.511 0 0.165-0.006 0.329-0.019 0.491-0.015 1.105-0.031 2.274 0.643 3.199s1.802 1.28 2.888 1.614c0.675 0.165 1.269 0.418 1.808 0.753 0.452 0.397 0.86 0.874 1.188 1.406 0.641 0.917 1.349 1.925 2.464 2.287 0.268 0.088 0.577 0.139 0.897 0.139 0.003 0 0.005 0 0.008 0 0.847-0.052 1.636-0.239 2.366-0.54 0.514-0.272 1.18-0.441 1.886-0.441s1.372 0.17 1.96 0.47c0.657 0.271 1.446 0.458 2.272 0.509 0.023 0.001 0.026 0.001 0.028 0.001 0.32 0 0.629-0.051 0.918-0.145 1.092-0.356 1.802-1.365 2.428-2.255 0.343-0.557 0.751-1.034 1.221-1.44 0.52-0.326 1.114-0.579 1.747-0.735 1.128-0.343 2.249-0.691 2.93-1.623s0.658-2.094 0.642-3.221c-0.011-0.14-0.017-0.303-0.017-0.468 0-0.523 0.063-1.031 0.18-1.517 0.254-0.561 0.584-1.082 0.98-1.543 0.653-0.868 1.403-1.863 1.403-3.053s-0.749-2.184-1.409-3.061zM30.822 18.184c-0.489 0.574-0.895 1.239-1.186 1.962-0.172 0.616-0.26 1.269-0.26 1.942 0 0.181 0.006 0.36 0.019 0.538 0.011 0.908 0.024 1.792-0.366 2.32-0.396 0.55-1.244 0.807-2.141 1.085-0.838 0.21-1.574 0.535-2.238 0.964-0.583 0.488-1.102 1.078-1.518 1.74-0.56 0.802-1.072 1.54-1.726 1.749-0.137 0.044-0.295 0.069-0.459 0.070-0.681-0.063-1.309-0.221-1.893-0.461-0.66-0.327-1.486-0.527-2.36-0.527s-1.7 0.2-2.436 0.557c-0.508 0.21-1.135 0.368-1.79 0.429-0.19 0.002-0.348-0.024-0.496-0.071-0.643-0.206-1.155-0.943-1.697-1.715-0.433-0.692-0.953-1.282-1.553-1.778-0.647-0.421-1.383-0.746-2.169-0.945-0.949-0.289-1.796-0.547-2.192-1.096-0.39-0.529-0.378-1.412-0.365-2.344 0.011-0.155 0.018-0.335 0.018-0.518 0-0.672-0.089-1.322-0.255-1.942-0.297-0.719-0.702-1.384-1.201-1.968-0.566-0.748-1.108-1.465-1.108-2.174s0.543-1.426 1.117-2.184c0.488-0.575 0.894-1.239 1.187-1.962 0.172-0.617 0.26-1.269 0.26-1.942 0-0.181-0.006-0.36-0.019-0.538-0.012-0.908-0.024-1.792 0.366-2.327s1.243-0.8 2.141-1.078c0.838-0.21 1.574-0.535 2.238-0.964 0.583-0.488 1.102-1.078 1.518-1.74 0.56-0.809 1.072-1.54 1.725-1.749 0.137-0.044 0.296-0.069 0.46-0.070 0.68 0.059 1.308 0.217 1.891 0.461 0.662 0.327 1.488 0.527 2.362 0.527s1.7-0.2 2.436-0.557c0.508-0.213 1.136-0.372 1.793-0.429 0.188-0.002 0.346 0.024 0.494 0.071 0.642 0.206 1.154 0.936 1.697 1.715 0.433 0.692 0.952 1.282 1.552 1.778 0.647 0.42 1.383 0.746 2.17 0.945 0.948 0.289 1.796 0.547 2.192 1.089s0.378 1.419 0.365 2.351c-0.011 0.154-0.018 0.333-0.018 0.514 0 0.673 0.089 1.325 0.255 1.946 0.298 0.719 0.704 1.383 1.2 1.969 0.566 0.748 1.108 1.464 1.108 2.174s-0.542 1.426-1.117 2.184zM27.969 12.341c-0.080-0.33-0.126-0.708-0.126-1.097 0-0.126 0.005-0.25 0.014-0.373 0.051-0.199 0.080-0.446 0.080-0.701 0-1.677-1.286-3.054-2.926-3.199-0.519-0.124-0.965-0.311-1.372-0.556-0.331-0.303-0.635-0.662-0.884-1.059-0.464-0.827-1.147-1.458-1.972-1.832-0.253-0.081-0.512-0.122-0.782-0.122-0.677 0.039-1.308 0.188-1.891 0.431-0.385 0.205-0.885 0.334-1.415 0.334s-1.030-0.129-1.47-0.356c-0.527-0.221-1.159-0.37-1.82-0.408-0.285-0-0.545 0.041-0.79 0.116-0.832 0.381-1.515 1.012-1.956 1.796-0.272 0.439-0.576 0.799-0.924 1.109-0.39 0.237-0.836 0.424-1.309 0.54-1.685 0.152-2.972 1.529-2.972 3.206 0 0.254 0.030 0.502 0.085 0.739 0.004 0.086 0.009 0.211 0.009 0.337 0 0.388-0.046 0.766-0.132 1.128-0.193 0.42-0.44 0.81-0.737 1.156-0.688 0.599-1.123 1.484-1.123 2.47s0.435 1.872 1.124 2.473c0.298 0.343 0.546 0.733 0.731 1.157 0.091 0.358 0.137 0.736 0.137 1.125 0 0.126-0.005 0.251-0.014 0.375-0.051 0.199-0.080 0.446-0.080 0.701 0 1.678 1.286 3.055 2.927 3.199 1.008 0.146 1.832 0.765 2.26 1.618 0.458 0.823 1.142 1.452 1.967 1.822 0.25 0.086 0.508 0.129 0.776 0.129 0.002 0 0.004 0 0.006 0 0.676-0.038 1.308-0.188 1.891-0.431 0.385-0.205 0.885-0.334 1.415-0.334s1.030 0.129 1.47 0.356c0.527 0.221 1.159 0.371 1.82 0.408 0.017 0.001 0.019 0.001 0.021 0.001 0.268 0 0.525-0.043 0.766-0.123 0.835-0.376 1.519-1.005 1.958-1.79 0.446-0.892 1.271-1.511 2.251-1.654 1.668-0.147 2.954-1.524 2.954-3.201 0-0.254-0.030-0.502-0.085-0.739-0.004-0.085-0.009-0.209-0.009-0.335 0-0.389 0.046-0.768 0.133-1.13 0.19-0.42 0.438-0.81 0.736-1.155 0.688-0.599 1.123-1.484 1.123-2.471s-0.435-1.872-1.124-2.473c-0.297-0.343-0.546-0.733-0.734-1.156zM27.552 17.6c-0.39 0.459-0.714 0.99-0.946 1.568-0.139 0.494-0.211 1.018-0.211 1.557 0 0.144 0.005 0.286 0.015 0.427 0.017 0.109 0.028 0.256 0.028 0.406 0 0.471-0.104 0.918-0.289 1.319-0.417 0.375-0.956 0.652-1.555 0.757-1.328 0.258-2.409 1.067-3.025 2.172-0.301 0.561-0.725 0.994-1.24 1.287-0.107 0.038-0.213 0.056-0.322 0.057-0.511-0.049-0.981-0.169-1.418-0.353-0.531-0.256-1.191-0.413-1.888-0.413s-1.357 0.156-1.948 0.436c-0.378 0.16-0.847 0.281-1.339 0.328-0.129 0.001-0.235-0.017-0.334-0.049-0.523-0.299-0.948-0.732-1.23-1.254-0.356-0.568-0.772-1.039-1.251-1.435-0.516-0.342-1.104-0.605-1.734-0.765-0.657-0.117-1.195-0.394-1.622-0.79-0.176-0.38-0.279-0.827-0.279-1.298 0-0.15 0.011-0.297 0.031-0.442 0.007-0.105 0.012-0.248 0.012-0.392 0-0.54-0.072-1.063-0.207-1.561-0.237-0.575-0.56-1.106-0.957-1.573-0.502-0.348-0.83-0.932-0.83-1.592s0.328-1.244 0.831-1.596c0.398-0.465 0.722-0.999 0.953-1.58 0.139-0.492 0.211-1.013 0.211-1.55 0-0.144-0.005-0.286-0.015-0.427-0.065-0.166-0.103-0.379-0.103-0.601 0-1.045 0.847-1.892 1.892-1.892 0.016 0 0.032 0 0.048 0.001 1.308-0.248 2.391-1.057 3.005-2.162 0.301-0.561 0.725-0.995 1.24-1.287 0.1-0.039 0.198-0.057 0.3-0.057 0.008 0 0.016 0 0.024 0 0.51 0.048 0.979 0.169 1.416 0.353 0.531 0.256 1.191 0.413 1.888 0.413s1.357-0.156 1.948-0.436c0.378-0.16 0.847-0.281 1.339-0.328 0.026-0.002 0.034-0.002 0.042-0.002 0.102 0 0.2 0.018 0.29 0.051 0.525 0.299 0.949 0.732 1.23 1.254 0.634 1.144 1.717 1.953 3 2.197 0.041 0.004 0.056 0.004 0.072 0.004 1.045 0 1.892 0.847 1.892 1.892 0 0.222-0.038 0.435-0.108 0.633-0.005 0.109-0.010 0.251-0.010 0.395 0 0.537 0.072 1.058 0.207 1.553 0.235 0.578 0.559 1.112 0.957 1.581 0.5 0.349 0.828 0.931 0.828 1.59 0 0.661-0.33 1.246-0.833 1.598z"></path>
</svg>
