<svg xmlns="http://www.w3.org/2000/svg" width="15" height="15" viewBox="0 0 15 15">
  <defs>
    <style>
      .cls-1 {
        fill: #fff;
        fill-rule: evenodd;
      }
    </style>
  </defs>
  <path class="cls-1" d="M1251.49,378.847c-0.63-.635-1.26-1.261-1.87-1.864a1.515,1.515,0,0,0-2.25,0l-0.08.083c-0.34.328-.68,0.669-1.01,1.01-0.07-.034-0.14-0.068-0.2-0.1a4.082,4.082,0,0,1-.43-0.225,11.289,11.289,0,0,1-2.8-2.552,6.478,6.478,0,0,1-.94-1.477c0.29-.285.58-0.576,0.86-0.861,0.07-.071.15-0.146,0.22-0.217a1.517,1.517,0,0,0-.01-2.289c-0.21-.213-0.42-0.426-0.63-0.634-0.09-.093-0.19-0.186-0.28-0.279s-0.2-.195-0.3-0.294c-0.21-.213-0.43-0.434-0.65-0.647a1.6,1.6,0,0,0-1.12-.5,1.56,1.56,0,0,0-1.12.5c-0.16.157-.32,0.316-0.48,0.47-0.22.227-.45,0.459-0.68,0.682a2.3,2.3,0,0,0-.73,1.548,6.018,6.018,0,0,0,.44,2.5,14.794,14.794,0,0,0,2.58,4.3,16.181,16.181,0,0,0,5.28,4.127,7.863,7.863,0,0,0,3.01.87c0.07,0,.14.006,0.2,0.006a2.486,2.486,0,0,0,1.93-.823c0.21-.236.44-0.456,0.68-0.688,0.12-.118.24-0.238,0.37-0.362A1.521,1.521,0,0,0,1251.49,378.847Zm-0.6,1.69-0.36.354c-0.24.232-.49,0.474-0.72,0.73a1.672,1.672,0,0,1-1.45.543,6.981,6.981,0,0,1-2.69-.787,15.169,15.169,0,0,1-5.01-3.911,13.773,13.773,0,0,1-2.44-4.051,4.91,4.91,0,0,1-.39-2.145,1.446,1.446,0,0,1,.47-1c0.23-.239.47-0.477,0.7-0.706,0.15-.152.31-0.309,0.46-0.465a0.7,0.7,0,0,1,1.08,0l0.64,0.642c0.1,0.1.19,0.2,0.29,0.294s0.19,0.186.28,0.279c0.21,0.207.43,0.421,0.64,0.631a0.693,0.693,0,0,1,0,1.109c-0.07.074-.15,0.146-0.22,0.22-0.3.3-.61,0.619-0.93,0.92a0.658,0.658,0,0,0-.15.767,7.082,7.082,0,0,0,1.1,1.769,12.393,12.393,0,0,0,3.01,2.731c0.17,0.105.34,0.188,0.5,0.269,0.1,0.047.19,0.093,0.28,0.143a0.68,0.68,0,0,0,.34.089h0a0.664,0.664,0,0,0,.48-0.225c0.35-.363.72-0.722,1.07-1.072l0.08-.084a0.685,0.685,0,0,1,1.07,0c0.61,0.6,1.24,1.23,1.87,1.862A0.693,0.693,0,0,1,1250.89,380.537Z" transform="translate(-1237 -368)"/>
</svg>
