<?xml version="1.0" encoding="utf-8"?>
<!-- Generated by IcoMoon.io -->
<!DOCTYPE svg PUBLIC "-//W3C//DTD SVG 1.1//EN" "http://www.w3.org/Graphics/SVG/1.1/DTD/svg11.dtd">
<svg version="1.1" xmlns="http://www.w3.org/2000/svg" xmlns:xlink="http://www.w3.org/1999/xlink" width="40" height="32" viewBox="0 0 40 32">
<path fill="#17B3AD" d="M35.565 21.871v-21.871h-11.855v7.29h-4.088v8.911h-1.635v-8.508h-13.49v8.508h-4.497v15.798h39.652v-10.129h-4.088zM5.721 8.911h11.037v1.621h-11.035v-1.621zM5.721 11.75h11.037v4.452h-11.035v-4.452zM12.26 17.419v5.67h-3.676v-5.67h3.679zM19.618 30.783h-18.392v-13.363h6.131v6.887h6.132v-6.887h6.131v13.363zM24.932 1.217h9.402v6.073h-9.399v-6.073zM29.021 8.508v6.073h-2.862v-6.073h2.862zM26.159 30.783h-5.314v-22.275h4.088v7.29h5.314v-7.29h4.088v13.363h-8.173v8.911zM38.422 30.783h-11.034v-7.694h11.037v7.694zM13.691 13.37h1.635v1.21h-1.635v-1.21zM11.238 13.37h1.635v1.21h-1.635v-1.21zM33.313 25.113h3.27v1.217h-3.27v-1.217zM30.86 27.541h5.723v1.217h-5.723v-1.217zM30.86 4.452h1.635v1.217h-1.635v-1.217zM28.407 4.452h1.635v1.217h-1.632v-1.217z"></path>
</svg>
