<svg xmlns="http://www.w3.org/2000/svg" width="30.5" height="26.87" viewBox="0 0 30.5 26.87">
  <defs>
    <style>
      .cls-1 {
        fill: none;
        stroke: #fff;
        stroke-width: 1.49px;
        fill-rule: evenodd;
      }
    </style>
  </defs>
  <path id="Forma_1" data-name="Forma 1" class="cls-1" d="M946,6174.48a5.4,5.4,0,0,0,5.321,5.47,5.08,5.08,0,0,0,2.582-.72c-0.264,2.93-1.751,7.2-7.206,11.54a1.843,1.843,0,0,0-.31,2.53,1.73,1.73,0,0,0,1.382.7,1.754,1.754,0,0,0,1.074-.38c6.693-5.35,8.365-10.84,8.589-14.51,0.383-4.69-1.054-7.16-2.37-8.45l-0.364-.37-0.843-.59-0.028-.02-0.054-.02-0.614-.29,0.017,0.04a4.989,4.989,0,0,0-1.855-.4,5.4,5.4,0,0,0-5.321,5.47h0Zm17.513,0a5.4,5.4,0,0,0,5.319,5.47,5.083,5.083,0,0,0,2.583-.72c-0.265,2.93-1.754,7.2-7.207,11.54a1.84,1.84,0,0,0-.31,2.53,1.71,1.71,0,0,0,2.455.32c6.691-5.35,8.367-10.84,8.589-14.51,0.384-4.69-1.058-7.16-2.371-8.45l-0.367-.37-0.839-.59-0.028-.02-0.057-.02-0.614-.29,0.018,0.04a5.023,5.023,0,0,0-1.859-.4A5.393,5.393,0,0,0,963.517,6174.48Z" transform="translate(-945.25 -6167.88)"/>
</svg>
