<?xml version="1.0" encoding="utf-8"?>
<!-- Generated by IcoMoon.io -->
<!DOCTYPE svg PUBLIC "-//W3C//DTD SVG 1.1//EN" "http://www.w3.org/Graphics/SVG/1.1/DTD/svg11.dtd">
<svg version="1.1" xmlns="http://www.w3.org/2000/svg" xmlns:xlink="http://www.w3.org/1999/xlink" width="26" height="32" viewBox="0 0 26 32">
<path fill="#17B3AD" d="M20.911 13.336h-13.405c-0.294 0-0.532 0.238-0.532 0.532s0.238 0.532 0.532 0.532c0 0 0 0 0 0h13.405c0.294 0 0.532-0.238 0.532-0.532s-0.238-0.532-0.532-0.532c0 0 0 0 0 0zM7.506 10.136h5.363c0.296 0 0.536-0.24 0.536-0.536s-0.24-0.536-0.536-0.536h-5.363c-0.296 0-0.536 0.24-0.536 0.536s0.24 0.536 0.536 0.536zM20.911 17.6h-13.405c-0.294 0-0.532 0.238-0.532 0.532s0.238 0.532 0.532 0.532c0 0 0 0 0 0h13.405c0 0 0 0 0 0 0.294 0 0.532-0.238 0.532-0.532s-0.238-0.532-0.532-0.532zM20.911 21.864h-13.405c-0.296 0-0.536 0.24-0.536 0.536s0.24 0.536 0.536 0.536h13.405c0 0 0 0 0 0 0.296 0 0.536-0.24 0.536-0.536s-0.24-0.536-0.536-0.536zM20.911 26.136h-13.405c-0.294 0-0.532 0.238-0.532 0.532s0.238 0.532 0.532 0.532c0 0 0 0 0 0h13.405c0.294 0 0.532-0.238 0.532-0.532s-0.238-0.532-0.532-0.532c0 0 0 0 0 0zM23.061 7.777v-7.777h-23.061v29.336h2.678v2.664h23.061v-21.551zM18.233 4.487l5.677 5.649h-5.677v-5.649zM1.071 28.264v-27.2h20.911v5.649l-4.063-4.049h-15.242v25.6h-1.607zM3.757 30.936v-27.2h13.405v7.464h7.506v19.736h-20.911z"></path>
</svg>
