<svg xmlns="http://www.w3.org/2000/svg" width="21.68" height="21.188" viewBox="0 0 21.68 21.188">
  <defs>
    <style>
      .cls-1 {
        fill: #fff;
        fill-rule: evenodd;
      }
    </style>
  </defs>
  <path class="cls-1" d="M1255.71,311.8a3.053,3.053,0,0,0-2.16-2.187c-4.66-1.2-5.55-2.749-5.71-3.228a4.934,4.934,0,0,0,.97-0.859c2.05-2.373,1.7-6.439,1.67-6.821-0.13-2.825-1.4-4.209-2.45-4.874a5.611,5.611,0,0,0-2.92-.833h-0.23a5.655,5.655,0,0,0-2.92.833c-1.04.665-2.31,2.049-2.44,4.874-0.04.382-.38,4.453,1.66,6.821a4.923,4.923,0,0,0,.98.865,2.335,2.335,0,0,1-.52.772c-0.64.669-2.06,1.642-5.2,2.45a3.037,3.037,0,0,0-2.16,2.182,1.751,1.751,0,0,0,1.07,2.4c0-1.487.17-2.9,1.42-3.232,2.76-.715,4.73-1.662,5.83-2.826a3.569,3.569,0,0,0,.79-1.178,5.67,5.67,0,0,0,1.52.226h0.17a5.55,5.55,0,0,0,1.53-.226,3.73,3.73,0,0,0,.78,1.178c1.11,1.164,3.07,2.111,5.83,2.826,1.25,0.33,1.43,1.745,1.43,3.232A1.738,1.738,0,0,0,1255.71,311.8Zm-10.69-6h-0.05a3.514,3.514,0,0,1-2.78-1.19c-1.7-1.971-1.33-5.738-1.33-5.774,0-.016.01-0.032,0.01-0.042,0.18-4.086,3.11-4.406,4.01-4.406h0.24c0.89,0,3.83.32,4.01,4.406v0.042c0.01,0.036.38,3.787-1.33,5.769A3.5,3.5,0,0,1,1245.02,305.8Z" transform="translate(-1234.16 -293)"/>
</svg>
